<?xml version="1.0" encoding="UTF-8" standalone="no"?>
<!DOCTYPE svg PUBLIC "-//W3C//DTD SVG 1.1//EN" "http://www.w3.org/Graphics/SVG/1.1/DTD/svg11.dtd">
<svg width="100%" height="100%" viewBox="0 0 1192 510" version="1.1" xmlns="http://www.w3.org/2000/svg" xmlns:xlink="http://www.w3.org/1999/xlink" xml:space="preserve" xmlns:serif="http://www.serif.com/" style="fill-rule:evenodd;clip-rule:evenodd;stroke-linecap:round;stroke-linejoin:round;stroke-miterlimit:1.5;">
    <g transform="matrix(1,0,0,1,-1336.16,-428.868)">
        <g id="Artboard1" transform="matrix(0.3125,0,0,0.3125,1328.51,287.492)">
            <rect x="0" y="0" width="3840" height="2160" style="fill:none;"/>
            <g transform="matrix(-1,0,0,1,4638.05,1215.48)">
                <g transform="matrix(3.2,0,0,3.2,-4251.25,-919.974)">
                    <path d="M2142.72,401.411L2171.01,419.712L2155.82,480.228L2142.72,401.411Z" style="fill:rgb(63,81,181);"/>
                </g>
                <g transform="matrix(3.2,0,0,3.2,-4251.25,-919.974)">
                    <path d="M2174.33,417.424L2198.87,408.898L2169.55,392.469L2143.76,400.787L2174.33,417.424Z" style="fill:rgb(34,150,243);"/>
                </g>
                <g transform="matrix(3.2,0,0,3.2,-4251.25,-919.974)">
                    <path d="M2201.78,412.849L2208.23,439.676L2172.88,419.088L2201.78,412.849Z" style="fill:rgb(0,188,212);"/>
                </g>
                <g transform="matrix(3.2,0,0,3.2,-4251.25,-919.974)">
                    <path d="M2205.94,411.185L2232.35,429.486L2236.72,456.937L2209.89,441.964L2205.94,411.185Z" style="fill:rgb(34,150,243);"/>
                </g>
                <g transform="matrix(3.2,0,0,3.2,-4251.25,-919.974)">
                    <path d="M2171.01,417.632L2206.57,441.34L2154.99,483.556L2171.01,417.632Z" style="fill:rgb(34,150,243);"/>
                </g>
                <g transform="matrix(3.2,0,0,3.2,-4251.25,-919.974)">
                    <path d="M2209.06,442.172L2237.14,460.056L2158.11,482.724L2209.06,442.172Z" style="fill:rgb(63,81,181);"/>
                </g>
                <g transform="matrix(1,0,0,1,266.551,-248.781)">
                    <g transform="matrix(3.2,0,0,3.2,-3610.73,-825.352)">
                        <path d="M1871.32,532.885L1858.97,449.376L1887.89,439.952L1948.33,475.696L1957.1,509.164L1871.32,532.885Z" style="fill:none;stroke:black;stroke-width:6.63px;"/>
                    </g>
                    <g transform="matrix(3.2,0,0,3.2,-4251.25,-919.974)">
                        <path d="M2118.37,487.452L2086.43,495.192L2071.81,561.155" style="fill:none;stroke:black;stroke-width:6.63px;"/>
                    </g>
                    <g transform="matrix(-1.36779,-2.89295,-2.89295,1.36779,6835.45,6101.64)">
                        <path d="M2118.37,487.452L2086.43,495.192L2071.81,561.155" style="fill:none;stroke:black;stroke-width:6.63px;"/>
                    </g>
                    <g transform="matrix(3.2,0,0,3.2,-4251.25,-919.974)">
                        <path d="M2059.13,478.945L2157.26,538.734" style="fill:none;stroke:black;stroke-width:6.63px;"/>
                    </g>
                </g>
            </g>
            <g transform="matrix(-0.950462,-0.31084,-0.31084,0.950462,3634.18,2110.86)">
                <g transform="matrix(3.2,0,0,3.2,-4251.25,-919.974)">
                    <path d="M2142.72,401.411L2171.01,419.712L2155.82,480.228L2142.72,401.411Z" style="fill:rgb(139,84,151);"/>
                </g>
                <g transform="matrix(3.2,0,0,3.2,-4251.25,-919.974)">
                    <path d="M2174.33,417.424L2198.87,408.898L2169.55,392.469L2143.76,400.787L2174.33,417.424Z" style="fill:rgb(149,86,162);"/>
                </g>
                <g transform="matrix(3.2,0,0,3.2,-4251.25,-919.974)">
                    <path d="M2201.78,412.849L2208.23,439.676L2172.88,419.088L2201.78,412.849Z" style="fill:rgb(191,125,192);"/>
                </g>
                <g transform="matrix(3.2,0,0,3.2,-4251.25,-919.974)">
                    <path d="M2205.94,411.185L2232.35,429.486L2236.72,456.937L2209.89,441.964L2205.94,411.185Z" style="fill:rgb(149,86,162);"/>
                </g>
                <g transform="matrix(3.2,0,0,3.2,-4251.25,-919.974)">
                    <path d="M2171.01,417.632L2206.57,441.34L2154.99,483.556L2171.01,417.632Z" style="fill:rgb(149,86,162);"/>
                </g>
                <g transform="matrix(3.2,0,0,3.2,-4251.25,-919.974)">
                    <path d="M2209.06,442.172L2237.14,460.056L2158.11,482.724L2209.06,442.172Z" style="fill:rgb(139,84,151);"/>
                </g>
                <g transform="matrix(1,0,0,1,266.551,-248.781)">
                    <g transform="matrix(3.2,0,0,3.2,-3610.73,-825.352)">
                        <path d="M1871.32,532.885L1858.97,449.376L1887.89,439.952L1948.33,475.696L1957.1,509.164L1871.32,532.885Z" style="fill:none;stroke:black;stroke-width:6.63px;"/>
                    </g>
                    <g transform="matrix(3.2,0,0,3.2,-4251.25,-919.974)">
                        <path d="M2118.37,487.452L2086.43,495.192L2071.81,561.155" style="fill:none;stroke:black;stroke-width:6.63px;"/>
                    </g>
                    <g transform="matrix(-1.36779,-2.89295,-2.89295,1.36779,6835.45,6101.64)">
                        <path d="M2118.37,487.452L2086.43,495.192L2071.81,561.155" style="fill:none;stroke:black;stroke-width:6.63px;"/>
                    </g>
                    <g transform="matrix(3.2,0,0,3.2,-4251.25,-919.974)">
                        <path d="M2059.13,478.945L2157.26,538.734" style="fill:none;stroke:black;stroke-width:6.63px;"/>
                    </g>
                </g>
            </g>
            <g transform="matrix(1,0,0,1,-614.086,1186.42)">
                <g transform="matrix(3.2,0,0,3.2,-4251.25,-919.974)">
                    <path d="M2142.72,401.411L2171.01,419.712L2155.82,480.228L2142.72,401.411Z" style="fill:rgb(197,40,40);"/>
                </g>
                <g transform="matrix(3.2,0,0,3.2,-4251.25,-919.974)">
                    <path d="M2174.33,417.424L2198.87,408.898L2169.55,392.469L2143.76,400.787L2174.33,417.424Z" style="fill:rgb(244,67,53);"/>
                </g>
                <g transform="matrix(3.2,0,0,3.2,-4251.25,-919.974)">
                    <path d="M2201.78,412.849L2208.23,439.676L2172.88,419.088L2201.78,412.849Z" style="fill:rgb(233,30,99);"/>
                </g>
                <g transform="matrix(3.2,0,0,3.2,-4251.25,-919.974)">
                    <path d="M2205.94,411.185L2232.35,429.486L2236.72,456.937L2209.89,441.964L2205.94,411.185Z" style="fill:rgb(244,67,53);"/>
                </g>
                <g transform="matrix(3.2,0,0,3.2,-4251.25,-919.974)">
                    <path d="M2171.01,417.632L2206.57,441.34L2154.99,483.556L2171.01,417.632Z" style="fill:rgb(244,67,53);"/>
                </g>
                <g transform="matrix(3.2,0,0,3.2,-4251.25,-919.974)">
                    <path d="M2209.06,442.172L2237.14,460.056L2158.11,482.724L2209.06,442.172Z" style="fill:rgb(197,40,40);"/>
                </g>
                <g transform="matrix(1,0,0,1,266.551,-248.781)">
                    <g transform="matrix(3.2,0,0,3.2,-3610.73,-825.352)">
                        <path d="M1871.32,532.885L1858.97,449.376L1887.89,439.952L1948.33,475.696L1957.1,509.164L1871.32,532.885Z" style="fill:none;stroke:black;stroke-width:6.63px;"/>
                    </g>
                    <g transform="matrix(3.2,0,0,3.2,-4251.25,-919.974)">
                        <path d="M2118.37,487.452L2086.43,495.192L2071.81,561.155" style="fill:none;stroke:black;stroke-width:6.63px;"/>
                    </g>
                    <g transform="matrix(-1.36779,-2.89295,-2.89295,1.36779,6835.45,6101.64)">
                        <path d="M2118.37,487.452L2086.43,495.192L2071.81,561.155" style="fill:none;stroke:black;stroke-width:6.63px;"/>
                    </g>
                    <g transform="matrix(3.2,0,0,3.2,-4251.25,-919.974)">
                        <path d="M2059.13,478.945L2157.26,538.734" style="fill:none;stroke:black;stroke-width:6.63px;"/>
                    </g>
                </g>
            </g>
            <g transform="matrix(-1,0,0,1,3364.66,147.195)">
                <g transform="matrix(3.2,0,0,3.2,-6900.77,2023.94)">
                    <g transform="matrix(-0.446894,0.0548517,-0.310176,-2.52711,3393.44,-1491.33)">
                        <rect x="2409.83" y="-501.103" width="42.521" height="112.967" style="fill:white;stroke:black;stroke-width:3.63px;"/>
                    </g>
                    <g transform="matrix(-0.446894,0.0548517,-0.310176,-2.52711,3416.28,-1494.04)">
                        <rect x="2409.83" y="-501.103" width="42.521" height="112.967" style="fill:rgb(182,192,219);stroke:black;stroke-width:3.63px;"/>
                    </g>
                </g>
                <g transform="matrix(2.07334,-0.280272,0.428674,3.17116,-3970.3,2692.36)">
                    <rect x="2409.83" y="-501.103" width="42.521" height="112.967" style="fill:rgb(244,138,78);stroke:black;stroke-width:7.85px;"/>
                </g>
                <g transform="matrix(0.180633,1.42943,-4.2277,0.534242,-1406.41,-2440.22)">
                    <rect x="2409.83" y="-501.103" width="42.521" height="112.967" style="fill:rgb(255,218,118);stroke:black;stroke-width:6.67px;"/>
                </g>
                <g transform="matrix(2.57008,0,0,2.57008,-5380,1766.61)">
                    <circle cx="2356.99" cy="-364.178" r="20.15" style="fill:rgb(244,138,78);stroke:black;stroke-width:8.26px;"/>
                </g>
                <g transform="matrix(2.57008,0,0,2.57008,-4908.84,1701.62)">
                    <circle cx="2356.99" cy="-364.178" r="20.15" style="fill:rgb(244,138,78);stroke:black;stroke-width:8.26px;"/>
                </g>
                <g transform="matrix(4.30866,0,0,4.30866,-9300.63,1971.76)">
                    <circle cx="2356.99" cy="-364.178" r="20.15" style="fill:rgb(244,138,78);stroke:black;stroke-width:4.93px;"/>
                </g>
            </g>
            <g transform="matrix(-3.2,0,0,3.2,8076.03,-1613.63)">
                <g transform="matrix(1,0,0,1,-599.59,736.708)">
                    <g transform="matrix(0.262473,0,0,1.3617,1837.73,-36.9859)">
                        <path d="M3420.47,250.72L3420.47,262.651C3420.47,265.944 3406.6,268.617 3389.52,268.617L3217.36,268.617C3200.28,268.617 3186.41,265.944 3186.41,262.651L3186.41,250.72C3186.41,247.427 3200.28,244.754 3217.36,244.754L3389.52,244.754C3406.6,244.754 3420.47,247.427 3420.47,250.72Z" style="fill:rgb(232,123,64);stroke:black;stroke-width:6.76px;"/>
                    </g>
                    <g transform="matrix(0.262473,0,0,1.3617,1886.73,-19.2158)">
                        <path d="M3420.47,250.72L3420.47,262.651C3420.47,265.944 3406.6,268.617 3389.52,268.617L3217.36,268.617C3200.28,268.617 3186.41,265.944 3186.41,262.651L3186.41,250.72C3186.41,247.427 3200.28,244.754 3217.36,244.754L3389.52,244.754C3406.6,244.754 3420.47,247.427 3420.47,250.72Z" style="fill:rgb(232,123,64);stroke:black;stroke-width:6.76px;"/>
                    </g>
                    <g transform="matrix(0.490239,0,0,1.3617,1090.91,-12.6155)">
                        <path d="M3420.47,250.72L3420.47,262.651C3420.47,265.944 3413.05,268.617 3403.9,268.617L3202.98,268.617C3193.84,268.617 3186.41,265.944 3186.41,262.651L3186.41,250.72C3186.41,247.427 3193.84,244.754 3202.98,244.754L3403.9,244.754C3413.05,244.754 3420.47,247.427 3420.47,250.72Z" style="fill:rgb(232,123,64);stroke:black;stroke-width:6.48px;"/>
                    </g>
                    <g transform="matrix(0.746204,0,0,2,256.255,-138.886)">
                        <path d="M3420.47,250.72L3420.47,262.651C3420.47,265.944 3413.31,268.617 3404.48,268.617L3202.4,268.617C3193.58,268.617 3186.41,265.944 3186.41,262.651L3186.41,250.72C3186.41,247.427 3193.58,244.754 3202.4,244.754L3404.48,244.754C3413.31,244.754 3420.47,247.427 3420.47,250.72Z" style="fill:rgb(232,123,64);stroke:black;stroke-width:4.39px;"/>
                    </g>
                    <g transform="matrix(0.746204,0,0,2,296.365,-125.178)">
                        <path d="M3420.47,250.72L3420.47,262.651C3420.47,265.944 3413.31,268.617 3404.48,268.617L3202.4,268.617C3193.58,268.617 3186.41,265.944 3186.41,262.651L3186.41,250.72C3186.41,247.427 3193.58,244.754 3202.4,244.754L3404.48,244.754C3413.31,244.754 3420.47,247.427 3420.47,250.72Z" style="fill:rgb(232,123,64);stroke:black;stroke-width:4.39px;"/>
                    </g>
                    <g transform="matrix(0.490239,0,0,1.3617,1158.18,5.15461)">
                        <path d="M3420.47,250.72L3420.47,262.651C3420.47,265.944 3413.05,268.617 3403.9,268.617L3202.98,268.617C3193.84,268.617 3186.41,265.944 3186.41,262.651L3186.41,250.72C3186.41,247.427 3193.84,244.754 3202.98,244.754L3403.9,244.754C3413.05,244.754 3420.47,247.427 3420.47,250.72Z" style="fill:rgb(232,123,64);stroke:black;stroke-width:6.48px;"/>
                    </g>
                    <g transform="matrix(0.278747,0,0,0.904807,1829.79,133.469)">
                        <path d="M3420.47,250.72L3420.47,262.651C3420.47,265.944 3411.79,268.617 3401.11,268.617L3205.78,268.617C3195.09,268.617 3186.41,265.944 3186.41,262.651L3186.41,250.72C3186.41,247.427 3195.09,244.754 3205.78,244.754L3401.11,244.754C3411.79,244.754 3420.47,247.427 3420.47,250.72Z" style="fill:rgb(255,182,100);stroke:black;stroke-width:9.91px;"/>
                    </g>
                    <g transform="matrix(0.278747,0,0,0.904807,1745.13,124.838)">
                        <path d="M3420.47,250.72L3420.47,262.651C3420.47,265.944 3411.79,268.617 3401.11,268.617L3205.78,268.617C3195.09,268.617 3186.41,265.944 3186.41,262.651L3186.41,250.72C3186.41,247.427 3195.09,244.754 3205.78,244.754L3401.11,244.754C3411.79,244.754 3420.47,247.427 3420.47,250.72Z" style="fill:rgb(255,182,100);stroke:black;stroke-width:9.91px;"/>
                    </g>
                    <g transform="matrix(0.228506,0.230876,-0.74942,0.741726,2225.3,-629.485)">
                        <path d="M3420.47,250.72L3420.47,262.651C3420.47,265.944 3411.79,268.617 3401.11,268.617L3205.78,268.617C3195.09,268.617 3186.41,265.944 3186.41,262.651L3186.41,250.72C3186.41,247.427 3195.09,244.754 3205.78,244.754L3401.11,244.754C3411.79,244.754 3420.47,247.427 3420.47,250.72Z" style="fill:rgb(255,182,100);stroke:black;stroke-width:8.5px;"/>
                    </g>
                    <g transform="matrix(0.324837,-2.77556e-17,1.11022e-16,1.05441,1574.6,114.881)">
                        <path d="M3420.47,250.72L3420.47,262.651C3420.47,265.944 3411.79,268.617 3401.11,268.617L3205.78,268.617C3195.09,268.617 3186.41,265.944 3186.41,262.651L3186.41,250.72C3186.41,247.427 3195.09,244.754 3205.78,244.754L3401.11,244.754C3411.79,244.754 3420.47,247.427 3420.47,250.72Z" style="fill:rgb(255,182,100);stroke:black;stroke-width:8.5px;"/>
                    </g>
                    <g transform="matrix(0.324837,-2.77556e-17,1.11022e-16,1.05441,1623.85,128.589)">
                        <path d="M3420.47,250.72L3420.47,262.651C3420.47,265.944 3411.79,268.617 3401.11,268.617L3205.78,268.617C3195.09,268.617 3186.41,265.944 3186.41,262.651L3186.41,250.72C3186.41,247.427 3195.09,244.754 3205.78,244.754L3401.11,244.754C3411.79,244.754 3420.47,247.427 3420.47,250.72Z" style="fill:rgb(255,182,100);stroke:black;stroke-width:8.5px;"/>
                    </g>
                    <g transform="matrix(0.270607,-3.39163e-17,9.24877e-17,1.28846,1938.81,46.4278)">
                        <path d="M3420.47,250.72L3420.47,262.651C3420.47,265.944 3407.74,268.617 3392.07,268.617L3214.82,268.617C3199.14,268.617 3186.41,265.944 3186.41,262.651L3186.41,250.72C3186.41,247.427 3199.14,244.754 3214.82,244.754L3392.07,244.754C3407.74,244.754 3420.47,247.427 3420.47,250.72Z" style="fill:rgb(255,182,100);stroke:black;stroke-width:7.12px;"/>
                    </g>
                    <g transform="matrix(0.395163,-3.37646e-17,1.35058e-16,1.28269,1551.57,67.6395)">
                        <path d="M3420.47,250.72L3420.47,262.651C3420.47,265.944 3411.79,268.617 3401.11,268.617L3205.78,268.617C3195.09,268.617 3186.41,265.944 3186.41,262.651L3186.41,250.72C3186.41,247.427 3195.09,244.754 3205.78,244.754L3401.11,244.754C3411.79,244.754 3420.47,247.427 3420.47,250.72Z" style="fill:rgb(255,182,100);stroke:black;stroke-width:6.99px;"/>
                    </g>
                </g>
                <g transform="matrix(1,0,0,1,-390.417,735.158)">
                    <g transform="matrix(0.262473,0,0,1.3617,1837.73,-36.9859)">
                        <path d="M3420.47,250.72L3420.47,262.651C3420.47,265.944 3406.6,268.617 3389.52,268.617L3217.36,268.617C3200.28,268.617 3186.41,265.944 3186.41,262.651L3186.41,250.72C3186.41,247.427 3200.28,244.754 3217.36,244.754L3389.52,244.754C3406.6,244.754 3420.47,247.427 3420.47,250.72Z" style="fill:rgb(232,123,64);stroke:black;stroke-width:6.76px;"/>
                    </g>
                    <g transform="matrix(0.262473,0,0,1.3617,1886.73,-19.2158)">
                        <path d="M3420.47,250.72L3420.47,262.651C3420.47,265.944 3406.6,268.617 3389.52,268.617L3217.36,268.617C3200.28,268.617 3186.41,265.944 3186.41,262.651L3186.41,250.72C3186.41,247.427 3200.28,244.754 3217.36,244.754L3389.52,244.754C3406.6,244.754 3420.47,247.427 3420.47,250.72Z" style="fill:rgb(232,123,64);stroke:black;stroke-width:6.76px;"/>
                    </g>
                    <g transform="matrix(0.490239,0,0,1.3617,1090.91,-12.6155)">
                        <path d="M3420.47,250.72L3420.47,262.651C3420.47,265.944 3413.05,268.617 3403.9,268.617L3202.98,268.617C3193.84,268.617 3186.41,265.944 3186.41,262.651L3186.41,250.72C3186.41,247.427 3193.84,244.754 3202.98,244.754L3403.9,244.754C3413.05,244.754 3420.47,247.427 3420.47,250.72Z" style="fill:rgb(232,123,64);stroke:black;stroke-width:6.48px;"/>
                    </g>
                    <g transform="matrix(0.746204,0,0,2,256.255,-138.886)">
                        <path d="M3420.47,250.72L3420.47,262.651C3420.47,265.944 3413.31,268.617 3404.48,268.617L3202.4,268.617C3193.58,268.617 3186.41,265.944 3186.41,262.651L3186.41,250.72C3186.41,247.427 3193.58,244.754 3202.4,244.754L3404.48,244.754C3413.31,244.754 3420.47,247.427 3420.47,250.72Z" style="fill:rgb(232,123,64);stroke:black;stroke-width:4.39px;"/>
                    </g>
                    <g transform="matrix(0.746204,0,0,2,296.365,-125.178)">
                        <path d="M3420.47,250.72L3420.47,262.651C3420.47,265.944 3413.31,268.617 3404.48,268.617L3202.4,268.617C3193.58,268.617 3186.41,265.944 3186.41,262.651L3186.41,250.72C3186.41,247.427 3193.58,244.754 3202.4,244.754L3404.48,244.754C3413.31,244.754 3420.47,247.427 3420.47,250.72Z" style="fill:rgb(232,123,64);stroke:black;stroke-width:4.39px;"/>
                    </g>
                    <g transform="matrix(0.490239,0,0,1.3617,1158.18,5.15461)">
                        <path d="M3420.47,250.72L3420.47,262.651C3420.47,265.944 3413.05,268.617 3403.9,268.617L3202.98,268.617C3193.84,268.617 3186.41,265.944 3186.41,262.651L3186.41,250.72C3186.41,247.427 3193.84,244.754 3202.98,244.754L3403.9,244.754C3413.05,244.754 3420.47,247.427 3420.47,250.72Z" style="fill:rgb(232,123,64);stroke:black;stroke-width:6.48px;"/>
                    </g>
                    <g transform="matrix(0.278747,0,0,0.904807,1829.79,133.469)">
                        <path d="M3420.47,250.72L3420.47,262.651C3420.47,265.944 3411.79,268.617 3401.11,268.617L3205.78,268.617C3195.09,268.617 3186.41,265.944 3186.41,262.651L3186.41,250.72C3186.41,247.427 3195.09,244.754 3205.78,244.754L3401.11,244.754C3411.79,244.754 3420.47,247.427 3420.47,250.72Z" style="fill:rgb(255,182,100);stroke:black;stroke-width:9.91px;"/>
                    </g>
                    <g transform="matrix(0.278747,0,0,0.904807,1745.13,124.838)">
                        <path d="M3420.47,250.72L3420.47,262.651C3420.47,265.944 3411.79,268.617 3401.11,268.617L3205.78,268.617C3195.09,268.617 3186.41,265.944 3186.41,262.651L3186.41,250.72C3186.41,247.427 3195.09,244.754 3205.78,244.754L3401.11,244.754C3411.79,244.754 3420.47,247.427 3420.47,250.72Z" style="fill:rgb(255,182,100);stroke:black;stroke-width:9.91px;"/>
                    </g>
                    <g transform="matrix(0.228506,0.230876,-0.74942,0.741726,2225.3,-629.485)">
                        <path d="M3420.47,250.72L3420.47,262.651C3420.47,265.944 3411.79,268.617 3401.11,268.617L3205.78,268.617C3195.09,268.617 3186.41,265.944 3186.41,262.651L3186.41,250.72C3186.41,247.427 3195.09,244.754 3205.78,244.754L3401.11,244.754C3411.79,244.754 3420.47,247.427 3420.47,250.72Z" style="fill:rgb(255,182,100);stroke:black;stroke-width:8.5px;"/>
                    </g>
                    <g transform="matrix(0.324837,-2.77556e-17,1.11022e-16,1.05441,1574.6,114.881)">
                        <path d="M3420.47,250.72L3420.47,262.651C3420.47,265.944 3411.79,268.617 3401.11,268.617L3205.78,268.617C3195.09,268.617 3186.41,265.944 3186.41,262.651L3186.41,250.72C3186.41,247.427 3195.09,244.754 3205.78,244.754L3401.11,244.754C3411.79,244.754 3420.47,247.427 3420.47,250.72Z" style="fill:rgb(255,182,100);stroke:black;stroke-width:8.5px;"/>
                    </g>
                    <g transform="matrix(0.324837,-2.77556e-17,1.11022e-16,1.05441,1623.85,128.589)">
                        <path d="M3420.47,250.72L3420.47,262.651C3420.47,265.944 3411.79,268.617 3401.11,268.617L3205.78,268.617C3195.09,268.617 3186.41,265.944 3186.41,262.651L3186.41,250.72C3186.41,247.427 3195.09,244.754 3205.78,244.754L3401.11,244.754C3411.79,244.754 3420.47,247.427 3420.47,250.72Z" style="fill:rgb(255,182,100);stroke:black;stroke-width:8.5px;"/>
                    </g>
                    <g transform="matrix(0.270607,-3.39163e-17,9.24877e-17,1.28846,1938.81,46.4278)">
                        <path d="M3420.47,250.72L3420.47,262.651C3420.47,265.944 3407.74,268.617 3392.07,268.617L3214.82,268.617C3199.14,268.617 3186.41,265.944 3186.41,262.651L3186.41,250.72C3186.41,247.427 3199.14,244.754 3214.82,244.754L3392.07,244.754C3407.74,244.754 3420.47,247.427 3420.47,250.72Z" style="fill:rgb(255,182,100);stroke:black;stroke-width:7.12px;"/>
                    </g>
                    <g transform="matrix(0.395163,-3.37646e-17,1.35058e-16,1.28269,1551.57,67.6395)">
                        <path d="M3420.47,250.72L3420.47,262.651C3420.47,265.944 3411.79,268.617 3401.11,268.617L3205.78,268.617C3195.09,268.617 3186.41,265.944 3186.41,262.651L3186.41,250.72C3186.41,247.427 3195.09,244.754 3205.78,244.754L3401.11,244.754C3411.79,244.754 3420.47,247.427 3420.47,250.72Z" style="fill:rgb(255,182,100);stroke:black;stroke-width:6.99px;"/>
                    </g>
                </g>
                <g transform="matrix(-1,0,0,1,4752.14,738.257)">
                    <g transform="matrix(0.262473,0,0,1.3617,1837.73,-36.9859)">
                        <path d="M3420.47,250.72L3420.47,262.651C3420.47,265.944 3406.6,268.617 3389.52,268.617L3217.36,268.617C3200.28,268.617 3186.41,265.944 3186.41,262.651L3186.41,250.72C3186.41,247.427 3200.28,244.754 3217.36,244.754L3389.52,244.754C3406.6,244.754 3420.47,247.427 3420.47,250.72Z" style="fill:rgb(232,123,64);stroke:black;stroke-width:6.76px;"/>
                    </g>
                    <g transform="matrix(0.262473,0,0,1.3617,1886.73,-19.2158)">
                        <path d="M3420.47,250.72L3420.47,262.651C3420.47,265.944 3406.6,268.617 3389.52,268.617L3217.36,268.617C3200.28,268.617 3186.41,265.944 3186.41,262.651L3186.41,250.72C3186.41,247.427 3200.28,244.754 3217.36,244.754L3389.52,244.754C3406.6,244.754 3420.47,247.427 3420.47,250.72Z" style="fill:rgb(232,123,64);stroke:black;stroke-width:6.76px;"/>
                    </g>
                    <g transform="matrix(0.490239,0,0,1.3617,1090.91,-12.6155)">
                        <path d="M3420.47,250.72L3420.47,262.651C3420.47,265.944 3413.05,268.617 3403.9,268.617L3202.98,268.617C3193.84,268.617 3186.41,265.944 3186.41,262.651L3186.41,250.72C3186.41,247.427 3193.84,244.754 3202.98,244.754L3403.9,244.754C3413.05,244.754 3420.47,247.427 3420.47,250.72Z" style="fill:rgb(232,123,64);stroke:black;stroke-width:6.48px;"/>
                    </g>
                    <g transform="matrix(0.746204,0,0,2,256.255,-138.886)">
                        <path d="M3420.47,250.72L3420.47,262.651C3420.47,265.944 3413.31,268.617 3404.48,268.617L3202.4,268.617C3193.58,268.617 3186.41,265.944 3186.41,262.651L3186.41,250.72C3186.41,247.427 3193.58,244.754 3202.4,244.754L3404.48,244.754C3413.31,244.754 3420.47,247.427 3420.47,250.72Z" style="fill:rgb(232,123,64);stroke:black;stroke-width:4.39px;"/>
                    </g>
                    <g transform="matrix(0.746204,0,0,2,296.365,-125.178)">
                        <path d="M3420.47,250.72L3420.47,262.651C3420.47,265.944 3413.31,268.617 3404.48,268.617L3202.4,268.617C3193.58,268.617 3186.41,265.944 3186.41,262.651L3186.41,250.72C3186.41,247.427 3193.58,244.754 3202.4,244.754L3404.48,244.754C3413.31,244.754 3420.47,247.427 3420.47,250.72Z" style="fill:rgb(232,123,64);stroke:black;stroke-width:4.39px;"/>
                    </g>
                    <g transform="matrix(0.490239,0,0,1.3617,1158.18,5.15461)">
                        <path d="M3420.47,250.72L3420.47,262.651C3420.47,265.944 3413.05,268.617 3403.9,268.617L3202.98,268.617C3193.84,268.617 3186.41,265.944 3186.41,262.651L3186.41,250.72C3186.41,247.427 3193.84,244.754 3202.98,244.754L3403.9,244.754C3413.05,244.754 3420.47,247.427 3420.47,250.72Z" style="fill:rgb(232,123,64);stroke:black;stroke-width:6.48px;"/>
                    </g>
                    <g transform="matrix(0.278747,0,0,0.904807,1829.79,133.469)">
                        <path d="M3420.47,250.72L3420.47,262.651C3420.47,265.944 3411.79,268.617 3401.11,268.617L3205.78,268.617C3195.09,268.617 3186.41,265.944 3186.41,262.651L3186.41,250.72C3186.41,247.427 3195.09,244.754 3205.78,244.754L3401.11,244.754C3411.79,244.754 3420.47,247.427 3420.47,250.72Z" style="fill:rgb(255,182,100);stroke:black;stroke-width:9.91px;"/>
                    </g>
                    <g transform="matrix(0.278747,0,0,0.904807,1745.13,124.838)">
                        <path d="M3420.47,250.72L3420.47,262.651C3420.47,265.944 3411.79,268.617 3401.11,268.617L3205.78,268.617C3195.09,268.617 3186.41,265.944 3186.41,262.651L3186.41,250.72C3186.41,247.427 3195.09,244.754 3205.78,244.754L3401.11,244.754C3411.79,244.754 3420.47,247.427 3420.47,250.72Z" style="fill:rgb(255,182,100);stroke:black;stroke-width:9.91px;"/>
                    </g>
                    <g transform="matrix(0.228506,0.230876,-0.74942,0.741726,2225.3,-629.485)">
                        <path d="M3420.47,250.72L3420.47,262.651C3420.47,265.944 3411.79,268.617 3401.11,268.617L3205.78,268.617C3195.09,268.617 3186.41,265.944 3186.41,262.651L3186.41,250.72C3186.41,247.427 3195.09,244.754 3205.78,244.754L3401.11,244.754C3411.79,244.754 3420.47,247.427 3420.47,250.72Z" style="fill:rgb(255,182,100);stroke:black;stroke-width:8.5px;"/>
                    </g>
                    <g transform="matrix(0.324837,-2.77556e-17,1.11022e-16,1.05441,1574.6,114.881)">
                        <path d="M3420.47,250.72L3420.47,262.651C3420.47,265.944 3411.79,268.617 3401.11,268.617L3205.78,268.617C3195.09,268.617 3186.41,265.944 3186.41,262.651L3186.41,250.72C3186.41,247.427 3195.09,244.754 3205.78,244.754L3401.11,244.754C3411.79,244.754 3420.47,247.427 3420.47,250.72Z" style="fill:rgb(255,182,100);stroke:black;stroke-width:8.5px;"/>
                    </g>
                    <g transform="matrix(0.324837,-2.77556e-17,1.11022e-16,1.05441,1623.85,128.589)">
                        <path d="M3420.47,250.72L3420.47,262.651C3420.47,265.944 3411.79,268.617 3401.11,268.617L3205.78,268.617C3195.09,268.617 3186.41,265.944 3186.41,262.651L3186.41,250.72C3186.41,247.427 3195.09,244.754 3205.78,244.754L3401.11,244.754C3411.79,244.754 3420.47,247.427 3420.47,250.72Z" style="fill:rgb(255,182,100);stroke:black;stroke-width:8.5px;"/>
                    </g>
                    <g transform="matrix(0.270607,-3.39163e-17,9.24877e-17,1.28846,1938.81,46.4278)">
                        <path d="M3420.47,250.72L3420.47,262.651C3420.47,265.944 3407.74,268.617 3392.07,268.617L3214.82,268.617C3199.14,268.617 3186.41,265.944 3186.41,262.651L3186.41,250.72C3186.41,247.427 3199.14,244.754 3214.82,244.754L3392.07,244.754C3407.74,244.754 3420.47,247.427 3420.47,250.72Z" style="fill:rgb(255,182,100);stroke:black;stroke-width:7.12px;"/>
                    </g>
                    <g transform="matrix(0.395163,-3.37646e-17,1.35058e-16,1.28269,1551.57,67.6395)">
                        <path d="M3420.47,250.72L3420.47,262.651C3420.47,265.944 3411.79,268.617 3401.11,268.617L3205.78,268.617C3195.09,268.617 3186.41,265.944 3186.41,262.651L3186.41,250.72C3186.41,247.427 3195.09,244.754 3205.78,244.754L3401.11,244.754C3411.79,244.754 3420.47,247.427 3420.47,250.72Z" style="fill:rgb(255,182,100);stroke:black;stroke-width:6.99px;"/>
                    </g>
                </g>
                <g transform="matrix(1,0,0,1,-1120.2,738.257)">
                    <g transform="matrix(0.262473,0,0,1.3617,1837.73,-36.9859)">
                        <path d="M3420.47,250.72L3420.47,262.651C3420.47,265.944 3406.6,268.617 3389.52,268.617L3217.36,268.617C3200.28,268.617 3186.41,265.944 3186.41,262.651L3186.41,250.72C3186.41,247.427 3200.28,244.754 3217.36,244.754L3389.52,244.754C3406.6,244.754 3420.47,247.427 3420.47,250.72Z" style="fill:rgb(232,123,64);stroke:black;stroke-width:6.76px;"/>
                    </g>
                    <g transform="matrix(0.262473,0,0,1.3617,1886.73,-19.2158)">
                        <path d="M3420.47,250.72L3420.47,262.651C3420.47,265.944 3406.6,268.617 3389.52,268.617L3217.36,268.617C3200.28,268.617 3186.41,265.944 3186.41,262.651L3186.41,250.72C3186.41,247.427 3200.28,244.754 3217.36,244.754L3389.52,244.754C3406.6,244.754 3420.47,247.427 3420.47,250.72Z" style="fill:rgb(232,123,64);stroke:black;stroke-width:6.76px;"/>
                    </g>
                    <g transform="matrix(0.490239,0,0,1.3617,1090.91,-12.6155)">
                        <path d="M3420.47,250.72L3420.47,262.651C3420.47,265.944 3413.05,268.617 3403.9,268.617L3202.98,268.617C3193.84,268.617 3186.41,265.944 3186.41,262.651L3186.41,250.72C3186.41,247.427 3193.84,244.754 3202.98,244.754L3403.9,244.754C3413.05,244.754 3420.47,247.427 3420.47,250.72Z" style="fill:rgb(232,123,64);stroke:black;stroke-width:6.48px;"/>
                    </g>
                    <g transform="matrix(0.746204,0,0,2,256.255,-138.886)">
                        <path d="M3420.47,250.72L3420.47,262.651C3420.47,265.944 3413.31,268.617 3404.48,268.617L3202.4,268.617C3193.58,268.617 3186.41,265.944 3186.41,262.651L3186.41,250.72C3186.41,247.427 3193.58,244.754 3202.4,244.754L3404.48,244.754C3413.31,244.754 3420.47,247.427 3420.47,250.72Z" style="fill:rgb(232,123,64);stroke:black;stroke-width:4.39px;"/>
                    </g>
                    <g transform="matrix(0.746204,0,0,2,296.365,-125.178)">
                        <path d="M3420.47,250.72L3420.47,262.651C3420.47,265.944 3413.31,268.617 3404.48,268.617L3202.4,268.617C3193.58,268.617 3186.41,265.944 3186.41,262.651L3186.41,250.72C3186.41,247.427 3193.58,244.754 3202.4,244.754L3404.48,244.754C3413.31,244.754 3420.47,247.427 3420.47,250.72Z" style="fill:rgb(232,123,64);stroke:black;stroke-width:4.39px;"/>
                    </g>
                    <g transform="matrix(0.490239,0,0,1.3617,1158.18,5.15461)">
                        <path d="M3420.47,250.72L3420.47,262.651C3420.47,265.944 3413.05,268.617 3403.9,268.617L3202.98,268.617C3193.84,268.617 3186.41,265.944 3186.41,262.651L3186.41,250.72C3186.41,247.427 3193.84,244.754 3202.98,244.754L3403.9,244.754C3413.05,244.754 3420.47,247.427 3420.47,250.72Z" style="fill:rgb(232,123,64);stroke:black;stroke-width:6.48px;"/>
                    </g>
                    <g transform="matrix(0.278747,0,0,0.904807,1829.79,133.469)">
                        <path d="M3420.47,250.72L3420.47,262.651C3420.47,265.944 3411.79,268.617 3401.11,268.617L3205.78,268.617C3195.09,268.617 3186.41,265.944 3186.41,262.651L3186.41,250.72C3186.41,247.427 3195.09,244.754 3205.78,244.754L3401.11,244.754C3411.79,244.754 3420.47,247.427 3420.47,250.72Z" style="fill:rgb(255,182,100);stroke:black;stroke-width:9.91px;"/>
                    </g>
                    <g transform="matrix(0.278747,0,0,0.904807,1745.13,124.838)">
                        <path d="M3420.47,250.72L3420.47,262.651C3420.47,265.944 3411.79,268.617 3401.11,268.617L3205.78,268.617C3195.09,268.617 3186.41,265.944 3186.41,262.651L3186.41,250.72C3186.41,247.427 3195.09,244.754 3205.78,244.754L3401.11,244.754C3411.79,244.754 3420.47,247.427 3420.47,250.72Z" style="fill:rgb(255,182,100);stroke:black;stroke-width:9.91px;"/>
                    </g>
                    <g transform="matrix(0.324837,-2.77556e-17,1.11022e-16,1.05441,1574.6,114.881)">
                        <path d="M3420.47,250.72L3420.47,262.651C3420.47,265.944 3411.79,268.617 3401.11,268.617L3205.78,268.617C3195.09,268.617 3186.41,265.944 3186.41,262.651L3186.41,250.72C3186.41,247.427 3195.09,244.754 3205.78,244.754L3401.11,244.754C3411.79,244.754 3420.47,247.427 3420.47,250.72Z" style="fill:rgb(255,182,100);stroke:black;stroke-width:8.5px;"/>
                    </g>
                    <g transform="matrix(0.324837,-2.77556e-17,1.11022e-16,1.05441,1623.85,128.589)">
                        <path d="M3420.47,250.72L3420.47,262.651C3420.47,265.944 3411.79,268.617 3401.11,268.617L3205.78,268.617C3195.09,268.617 3186.41,265.944 3186.41,262.651L3186.41,250.72C3186.41,247.427 3195.09,244.754 3205.78,244.754L3401.11,244.754C3411.79,244.754 3420.47,247.427 3420.47,250.72Z" style="fill:rgb(255,182,100);stroke:black;stroke-width:8.5px;"/>
                    </g>
                    <g transform="matrix(0.395163,-3.37646e-17,1.35058e-16,1.28269,1551.57,67.6395)">
                        <path d="M3420.47,250.72L3420.47,262.651C3420.47,265.944 3411.79,268.617 3401.11,268.617L3205.78,268.617C3195.09,268.617 3186.41,265.944 3186.41,262.651L3186.41,250.72C3186.41,247.427 3195.09,244.754 3205.78,244.754L3401.11,244.754C3411.79,244.754 3420.47,247.427 3420.47,250.72Z" style="fill:rgb(255,182,100);stroke:black;stroke-width:6.99px;"/>
                    </g>
                </g>
                <g transform="matrix(1,0,0,1,-911.025,736.708)">
                    <g transform="matrix(0.262473,0,0,1.3617,1837.73,-36.9859)">
                        <path d="M3420.47,250.72L3420.47,262.651C3420.47,265.944 3406.6,268.617 3389.52,268.617L3217.36,268.617C3200.28,268.617 3186.41,265.944 3186.41,262.651L3186.41,250.72C3186.41,247.427 3200.28,244.754 3217.36,244.754L3389.52,244.754C3406.6,244.754 3420.47,247.427 3420.47,250.72Z" style="fill:rgb(232,123,64);stroke:black;stroke-width:6.76px;"/>
                    </g>
                    <g transform="matrix(0.262473,0,0,1.3617,1886.73,-19.2158)">
                        <path d="M3420.47,250.72L3420.47,262.651C3420.47,265.944 3406.6,268.617 3389.52,268.617L3217.36,268.617C3200.28,268.617 3186.41,265.944 3186.41,262.651L3186.41,250.72C3186.41,247.427 3200.28,244.754 3217.36,244.754L3389.52,244.754C3406.6,244.754 3420.47,247.427 3420.47,250.72Z" style="fill:rgb(232,123,64);stroke:black;stroke-width:6.76px;"/>
                    </g>
                    <g transform="matrix(0.490239,0,0,1.3617,1090.91,-12.6155)">
                        <path d="M3420.47,250.72L3420.47,262.651C3420.47,265.944 3413.05,268.617 3403.9,268.617L3202.98,268.617C3193.84,268.617 3186.41,265.944 3186.41,262.651L3186.41,250.72C3186.41,247.427 3193.84,244.754 3202.98,244.754L3403.9,244.754C3413.05,244.754 3420.47,247.427 3420.47,250.72Z" style="fill:rgb(232,123,64);stroke:black;stroke-width:6.48px;"/>
                    </g>
                    <g transform="matrix(0.746204,0,0,2,256.255,-138.886)">
                        <path d="M3420.47,250.72L3420.47,262.651C3420.47,265.944 3413.31,268.617 3404.48,268.617L3202.4,268.617C3193.58,268.617 3186.41,265.944 3186.41,262.651L3186.41,250.72C3186.41,247.427 3193.58,244.754 3202.4,244.754L3404.48,244.754C3413.31,244.754 3420.47,247.427 3420.47,250.72Z" style="fill:rgb(232,123,64);stroke:black;stroke-width:4.39px;"/>
                    </g>
                    <g transform="matrix(0.746204,0,0,2,296.365,-125.178)">
                        <path d="M3420.47,250.72L3420.47,262.651C3420.47,265.944 3413.31,268.617 3404.48,268.617L3202.4,268.617C3193.58,268.617 3186.41,265.944 3186.41,262.651L3186.41,250.72C3186.41,247.427 3193.58,244.754 3202.4,244.754L3404.48,244.754C3413.31,244.754 3420.47,247.427 3420.47,250.72Z" style="fill:rgb(232,123,64);stroke:black;stroke-width:4.39px;"/>
                    </g>
                    <g transform="matrix(0.490239,0,0,1.3617,1158.18,5.15461)">
                        <path d="M3420.47,250.72L3420.47,262.651C3420.47,265.944 3413.05,268.617 3403.9,268.617L3202.98,268.617C3193.84,268.617 3186.41,265.944 3186.41,262.651L3186.41,250.72C3186.41,247.427 3193.84,244.754 3202.98,244.754L3403.9,244.754C3413.05,244.754 3420.47,247.427 3420.47,250.72Z" style="fill:rgb(232,123,64);stroke:black;stroke-width:6.48px;"/>
                    </g>
                    <g transform="matrix(0.278747,0,0,0.904807,1829.79,133.469)">
                        <path d="M3420.47,250.72L3420.47,262.651C3420.47,265.944 3411.79,268.617 3401.11,268.617L3205.78,268.617C3195.09,268.617 3186.41,265.944 3186.41,262.651L3186.41,250.72C3186.41,247.427 3195.09,244.754 3205.78,244.754L3401.11,244.754C3411.79,244.754 3420.47,247.427 3420.47,250.72Z" style="fill:rgb(255,182,100);stroke:black;stroke-width:9.91px;"/>
                    </g>
                    <g transform="matrix(0.278747,0,0,0.904807,1745.13,124.838)">
                        <path d="M3420.47,250.72L3420.47,262.651C3420.47,265.944 3411.79,268.617 3401.11,268.617L3205.78,268.617C3195.09,268.617 3186.41,265.944 3186.41,262.651L3186.41,250.72C3186.41,247.427 3195.09,244.754 3205.78,244.754L3401.11,244.754C3411.79,244.754 3420.47,247.427 3420.47,250.72Z" style="fill:rgb(255,182,100);stroke:black;stroke-width:9.91px;"/>
                    </g>
                    <g transform="matrix(0.228506,0.230876,-0.74942,0.741726,2225.3,-629.485)">
                        <path d="M3420.47,250.72L3420.47,262.651C3420.47,265.944 3411.79,268.617 3401.11,268.617L3205.78,268.617C3195.09,268.617 3186.41,265.944 3186.41,262.651L3186.41,250.72C3186.41,247.427 3195.09,244.754 3205.78,244.754L3401.11,244.754C3411.79,244.754 3420.47,247.427 3420.47,250.72Z" style="fill:rgb(255,182,100);stroke:black;stroke-width:8.5px;"/>
                    </g>
                    <g transform="matrix(0.324835,0.000874212,-0.00283768,1.05441,1916.87,34.5578)">
                        <path d="M3420.47,250.72L3420.47,262.651C3420.47,265.944 3411.79,268.617 3401.11,268.617L3205.78,268.617C3195.09,268.617 3186.41,265.944 3186.41,262.651L3186.41,250.72C3186.41,247.427 3195.09,244.754 3205.78,244.754L3401.11,244.754C3411.79,244.754 3420.47,247.427 3420.47,250.72Z" style="fill:rgb(255,182,100);stroke:black;stroke-width:8.5px;"/>
                    </g>
                    <g transform="matrix(0.324837,-2.77556e-17,1.11022e-16,1.05441,1574.6,114.881)">
                        <path d="M3420.47,250.72L3420.47,262.651C3420.47,265.944 3411.79,268.617 3401.11,268.617L3205.78,268.617C3195.09,268.617 3186.41,265.944 3186.41,262.651L3186.41,250.72C3186.41,247.427 3195.09,244.754 3205.78,244.754L3401.11,244.754C3411.79,244.754 3420.47,247.427 3420.47,250.72Z" style="fill:rgb(255,182,100);stroke:black;stroke-width:8.5px;"/>
                    </g>
                    <g transform="matrix(0.324837,-2.77556e-17,1.11022e-16,1.05441,1623.85,128.589)">
                        <path d="M3420.47,250.72L3420.47,262.651C3420.47,265.944 3411.79,268.617 3401.11,268.617L3205.78,268.617C3195.09,268.617 3186.41,265.944 3186.41,262.651L3186.41,250.72C3186.41,247.427 3195.09,244.754 3205.78,244.754L3401.11,244.754C3411.79,244.754 3420.47,247.427 3420.47,250.72Z" style="fill:rgb(255,182,100);stroke:black;stroke-width:8.5px;"/>
                    </g>
                    <g transform="matrix(0.270607,-3.39163e-17,9.24877e-17,1.28846,1938.81,46.4278)">
                        <path d="M3420.47,250.72L3420.47,262.651C3420.47,265.944 3407.74,268.617 3392.07,268.617L3214.82,268.617C3199.14,268.617 3186.41,265.944 3186.41,262.651L3186.41,250.72C3186.41,247.427 3199.14,244.754 3214.82,244.754L3392.07,244.754C3407.74,244.754 3420.47,247.427 3420.47,250.72Z" style="fill:rgb(255,182,100);stroke:black;stroke-width:7.12px;"/>
                    </g>
                    <g transform="matrix(0.395163,-3.37646e-17,1.35058e-16,1.28269,1551.57,67.6395)">
                        <path d="M3420.47,250.72L3420.47,262.651C3420.47,265.944 3411.79,268.617 3401.11,268.617L3205.78,268.617C3195.09,268.617 3186.41,265.944 3186.41,262.651L3186.41,250.72C3186.41,247.427 3195.09,244.754 3205.78,244.754L3401.11,244.754C3411.79,244.754 3420.47,247.427 3420.47,250.72Z" style="fill:rgb(255,182,100);stroke:black;stroke-width:6.99px;"/>
                    </g>
                </g>
                <g transform="matrix(-1,0,0,1,4231.53,739.807)">
                    <g transform="matrix(0.262473,0,0,1.3617,1837.73,-36.9859)">
                        <path d="M3420.47,250.72L3420.47,262.651C3420.47,265.944 3406.6,268.617 3389.52,268.617L3217.36,268.617C3200.28,268.617 3186.41,265.944 3186.41,262.651L3186.41,250.72C3186.41,247.427 3200.28,244.754 3217.36,244.754L3389.52,244.754C3406.6,244.754 3420.47,247.427 3420.47,250.72Z" style="fill:rgb(232,123,64);stroke:black;stroke-width:6.76px;"/>
                    </g>
                    <g transform="matrix(0.262473,0,0,1.3617,1886.73,-19.2158)">
                        <path d="M3420.47,250.72L3420.47,262.651C3420.47,265.944 3406.6,268.617 3389.52,268.617L3217.36,268.617C3200.28,268.617 3186.41,265.944 3186.41,262.651L3186.41,250.72C3186.41,247.427 3200.28,244.754 3217.36,244.754L3389.52,244.754C3406.6,244.754 3420.47,247.427 3420.47,250.72Z" style="fill:rgb(232,123,64);stroke:black;stroke-width:6.76px;"/>
                    </g>
                    <g transform="matrix(0.490239,0,0,1.3617,1090.91,-12.6155)">
                        <path d="M3420.47,250.72L3420.47,262.651C3420.47,265.944 3413.05,268.617 3403.9,268.617L3202.98,268.617C3193.84,268.617 3186.41,265.944 3186.41,262.651L3186.41,250.72C3186.41,247.427 3193.84,244.754 3202.98,244.754L3403.9,244.754C3413.05,244.754 3420.47,247.427 3420.47,250.72Z" style="fill:rgb(232,123,64);stroke:black;stroke-width:6.48px;"/>
                    </g>
                    <g transform="matrix(0.746204,0,0,2,256.255,-138.886)">
                        <path d="M3420.47,250.72L3420.47,262.651C3420.47,265.944 3413.31,268.617 3404.48,268.617L3202.4,268.617C3193.58,268.617 3186.41,265.944 3186.41,262.651L3186.41,250.72C3186.41,247.427 3193.58,244.754 3202.4,244.754L3404.48,244.754C3413.31,244.754 3420.47,247.427 3420.47,250.72Z" style="fill:rgb(232,123,64);stroke:black;stroke-width:4.39px;"/>
                    </g>
                    <g transform="matrix(0.746204,0,0,2,296.365,-125.178)">
                        <path d="M3420.47,250.72L3420.47,262.651C3420.47,265.944 3413.31,268.617 3404.48,268.617L3202.4,268.617C3193.58,268.617 3186.41,265.944 3186.41,262.651L3186.41,250.72C3186.41,247.427 3193.58,244.754 3202.4,244.754L3404.48,244.754C3413.31,244.754 3420.47,247.427 3420.47,250.72Z" style="fill:rgb(232,123,64);stroke:black;stroke-width:4.39px;"/>
                    </g>
                    <g transform="matrix(0.490239,0,0,1.3617,1158.18,5.15461)">
                        <path d="M3420.47,250.72L3420.47,262.651C3420.47,265.944 3413.05,268.617 3403.9,268.617L3202.98,268.617C3193.84,268.617 3186.41,265.944 3186.41,262.651L3186.41,250.72C3186.41,247.427 3193.84,244.754 3202.98,244.754L3403.9,244.754C3413.05,244.754 3420.47,247.427 3420.47,250.72Z" style="fill:rgb(232,123,64);stroke:black;stroke-width:6.48px;"/>
                    </g>
                    <g transform="matrix(0.278747,0,0,0.904807,1829.79,133.469)">
                        <path d="M3420.47,250.72L3420.47,262.651C3420.47,265.944 3411.79,268.617 3401.11,268.617L3205.78,268.617C3195.09,268.617 3186.41,265.944 3186.41,262.651L3186.41,250.72C3186.41,247.427 3195.09,244.754 3205.78,244.754L3401.11,244.754C3411.79,244.754 3420.47,247.427 3420.47,250.72Z" style="fill:rgb(255,182,100);stroke:black;stroke-width:9.91px;"/>
                    </g>
                    <g transform="matrix(0.278747,0,0,0.904807,1745.13,124.838)">
                        <path d="M3420.47,250.72L3420.47,262.651C3420.47,265.944 3411.79,268.617 3401.11,268.617L3205.78,268.617C3195.09,268.617 3186.41,265.944 3186.41,262.651L3186.41,250.72C3186.41,247.427 3195.09,244.754 3205.78,244.754L3401.11,244.754C3411.79,244.754 3420.47,247.427 3420.47,250.72Z" style="fill:rgb(255,182,100);stroke:black;stroke-width:9.91px;"/>
                    </g>
                    <g transform="matrix(0.228506,0.230876,-0.74942,0.741726,2225.3,-629.485)">
                        <path d="M3420.47,250.72L3420.47,262.651C3420.47,265.944 3411.79,268.617 3401.11,268.617L3205.78,268.617C3195.09,268.617 3186.41,265.944 3186.41,262.651L3186.41,250.72C3186.41,247.427 3195.09,244.754 3205.78,244.754L3401.11,244.754C3411.79,244.754 3420.47,247.427 3420.47,250.72Z" style="fill:rgb(255,182,100);stroke:black;stroke-width:8.5px;"/>
                    </g>
                    <g transform="matrix(0.324837,-2.77556e-17,1.11022e-16,1.05441,1574.6,114.881)">
                        <path d="M3420.47,250.72L3420.47,262.651C3420.47,265.944 3411.79,268.617 3401.11,268.617L3205.78,268.617C3195.09,268.617 3186.41,265.944 3186.41,262.651L3186.41,250.72C3186.41,247.427 3195.09,244.754 3205.78,244.754L3401.11,244.754C3411.79,244.754 3420.47,247.427 3420.47,250.72Z" style="fill:rgb(255,182,100);stroke:black;stroke-width:8.5px;"/>
                    </g>
                    <g transform="matrix(0.324837,-2.77556e-17,1.11022e-16,1.05441,1623.85,128.589)">
                        <path d="M3420.47,250.72L3420.47,262.651C3420.47,265.944 3411.79,268.617 3401.11,268.617L3205.78,268.617C3195.09,268.617 3186.41,265.944 3186.41,262.651L3186.41,250.72C3186.41,247.427 3195.09,244.754 3205.78,244.754L3401.11,244.754C3411.79,244.754 3420.47,247.427 3420.47,250.72Z" style="fill:rgb(255,182,100);stroke:black;stroke-width:8.5px;"/>
                    </g>
                    <g transform="matrix(0.270607,-3.39163e-17,9.24877e-17,1.28846,1938.81,46.4278)">
                        <path d="M3420.47,250.72L3420.47,262.651C3420.47,265.944 3407.74,268.617 3392.07,268.617L3214.82,268.617C3199.14,268.617 3186.41,265.944 3186.41,262.651L3186.41,250.72C3186.41,247.427 3199.14,244.754 3214.82,244.754L3392.07,244.754C3407.74,244.754 3420.47,247.427 3420.47,250.72Z" style="fill:rgb(255,182,100);stroke:black;stroke-width:7.12px;"/>
                    </g>
                    <g transform="matrix(0.395163,-3.37646e-17,1.35058e-16,1.28269,1551.57,67.6395)">
                        <path d="M3420.47,250.72L3420.47,262.651C3420.47,265.944 3411.79,268.617 3401.11,268.617L3205.78,268.617C3195.09,268.617 3186.41,265.944 3186.41,262.651L3186.41,250.72C3186.41,247.427 3195.09,244.754 3205.78,244.754L3401.11,244.754C3411.79,244.754 3420.47,247.427 3420.47,250.72Z" style="fill:rgb(255,182,100);stroke:black;stroke-width:6.99px;"/>
                    </g>
                </g>
                <g transform="matrix(1,0,0,1,-599.59,736.708)">
                    <g transform="matrix(0.262473,0,0,1.3617,1837.73,-36.9859)">
                        <path d="M3420.47,250.72L3420.47,262.651C3420.47,265.944 3406.6,268.617 3389.52,268.617L3217.36,268.617C3200.28,268.617 3186.41,265.944 3186.41,262.651L3186.41,250.72C3186.41,247.427 3200.28,244.754 3217.36,244.754L3389.52,244.754C3406.6,244.754 3420.47,247.427 3420.47,250.72Z" style="fill:rgb(232,123,64);stroke:black;stroke-width:6.76px;"/>
                    </g>
                    <g transform="matrix(0.262473,0,0,1.3617,1886.73,-19.2158)">
                        <path d="M3420.47,250.72L3420.47,262.651C3420.47,265.944 3406.6,268.617 3389.52,268.617L3217.36,268.617C3200.28,268.617 3186.41,265.944 3186.41,262.651L3186.41,250.72C3186.41,247.427 3200.28,244.754 3217.36,244.754L3389.52,244.754C3406.6,244.754 3420.47,247.427 3420.47,250.72Z" style="fill:rgb(232,123,64);stroke:black;stroke-width:6.76px;"/>
                    </g>
                    <g transform="matrix(0.490239,0,0,1.3617,1090.91,-12.6155)">
                        <path d="M3420.47,250.72L3420.47,262.651C3420.47,265.944 3413.05,268.617 3403.9,268.617L3202.98,268.617C3193.84,268.617 3186.41,265.944 3186.41,262.651L3186.41,250.72C3186.41,247.427 3193.84,244.754 3202.98,244.754L3403.9,244.754C3413.05,244.754 3420.47,247.427 3420.47,250.72Z" style="fill:rgb(232,123,64);stroke:black;stroke-width:6.48px;"/>
                    </g>
                    <g transform="matrix(0.746204,0,0,2,256.255,-138.886)">
                        <path d="M3420.47,250.72L3420.47,262.651C3420.47,265.944 3413.31,268.617 3404.48,268.617L3202.4,268.617C3193.58,268.617 3186.41,265.944 3186.41,262.651L3186.41,250.72C3186.41,247.427 3193.58,244.754 3202.4,244.754L3404.48,244.754C3413.31,244.754 3420.47,247.427 3420.47,250.72Z" style="fill:rgb(232,123,64);stroke:black;stroke-width:4.39px;"/>
                    </g>
                    <g transform="matrix(0.746204,0,0,2,296.365,-125.178)">
                        <path d="M3420.47,250.72L3420.47,262.651C3420.47,265.944 3413.31,268.617 3404.48,268.617L3202.4,268.617C3193.58,268.617 3186.41,265.944 3186.41,262.651L3186.41,250.72C3186.41,247.427 3193.58,244.754 3202.4,244.754L3404.48,244.754C3413.31,244.754 3420.47,247.427 3420.47,250.72Z" style="fill:rgb(232,123,64);stroke:black;stroke-width:4.39px;"/>
                    </g>
                    <g transform="matrix(0.490239,0,0,1.3617,1158.18,5.15461)">
                        <path d="M3420.47,250.72L3420.47,262.651C3420.47,265.944 3413.05,268.617 3403.9,268.617L3202.98,268.617C3193.84,268.617 3186.41,265.944 3186.41,262.651L3186.41,250.72C3186.41,247.427 3193.84,244.754 3202.98,244.754L3403.9,244.754C3413.05,244.754 3420.47,247.427 3420.47,250.72Z" style="fill:rgb(232,123,64);stroke:black;stroke-width:6.48px;"/>
                    </g>
                    <g transform="matrix(0.278747,0,0,0.904807,1829.79,133.469)">
                        <path d="M3420.47,250.72L3420.47,262.651C3420.47,265.944 3411.79,268.617 3401.11,268.617L3205.78,268.617C3195.09,268.617 3186.41,265.944 3186.41,262.651L3186.41,250.72C3186.41,247.427 3195.09,244.754 3205.78,244.754L3401.11,244.754C3411.79,244.754 3420.47,247.427 3420.47,250.72Z" style="fill:rgb(255,182,100);stroke:black;stroke-width:9.91px;"/>
                    </g>
                    <g transform="matrix(0.278747,0,0,0.904807,1745.13,124.838)">
                        <path d="M3420.47,250.72L3420.47,262.651C3420.47,265.944 3411.79,268.617 3401.11,268.617L3205.78,268.617C3195.09,268.617 3186.41,265.944 3186.41,262.651L3186.41,250.72C3186.41,247.427 3195.09,244.754 3205.78,244.754L3401.11,244.754C3411.79,244.754 3420.47,247.427 3420.47,250.72Z" style="fill:rgb(255,182,100);stroke:black;stroke-width:9.91px;"/>
                    </g>
                    <g transform="matrix(0.228506,0.230876,-0.74942,0.741726,2225.3,-629.485)">
                        <path d="M3420.47,250.72L3420.47,262.651C3420.47,265.944 3411.79,268.617 3401.11,268.617L3205.78,268.617C3195.09,268.617 3186.41,265.944 3186.41,262.651L3186.41,250.72C3186.41,247.427 3195.09,244.754 3205.78,244.754L3401.11,244.754C3411.79,244.754 3420.47,247.427 3420.47,250.72Z" style="fill:rgb(255,182,100);stroke:black;stroke-width:8.5px;"/>
                    </g>
                    <g transform="matrix(0.324837,-2.77556e-17,1.11022e-16,1.05441,1574.6,114.881)">
                        <path d="M3420.47,250.72L3420.47,262.651C3420.47,265.944 3411.79,268.617 3401.11,268.617L3205.78,268.617C3195.09,268.617 3186.41,265.944 3186.41,262.651L3186.41,250.72C3186.41,247.427 3195.09,244.754 3205.78,244.754L3401.11,244.754C3411.79,244.754 3420.47,247.427 3420.47,250.72Z" style="fill:rgb(255,182,100);stroke:black;stroke-width:8.5px;"/>
                    </g>
                    <g transform="matrix(0.324837,-2.77556e-17,1.11022e-16,1.05441,1623.85,128.589)">
                        <path d="M3420.47,250.72L3420.47,262.651C3420.47,265.944 3411.79,268.617 3401.11,268.617L3205.78,268.617C3195.09,268.617 3186.41,265.944 3186.41,262.651L3186.41,250.72C3186.41,247.427 3195.09,244.754 3205.78,244.754L3401.11,244.754C3411.79,244.754 3420.47,247.427 3420.47,250.72Z" style="fill:rgb(255,182,100);stroke:black;stroke-width:8.5px;"/>
                    </g>
                    <g transform="matrix(0.270607,-3.39163e-17,9.24877e-17,1.28846,1938.81,46.4278)">
                        <path d="M3420.47,250.72L3420.47,262.651C3420.47,265.944 3407.74,268.617 3392.07,268.617L3214.82,268.617C3199.14,268.617 3186.41,265.944 3186.41,262.651L3186.41,250.72C3186.41,247.427 3199.14,244.754 3214.82,244.754L3392.07,244.754C3407.74,244.754 3420.47,247.427 3420.47,250.72Z" style="fill:rgb(255,182,100);stroke:black;stroke-width:7.12px;"/>
                    </g>
                    <g transform="matrix(0.395163,-3.37646e-17,1.35058e-16,1.28269,1551.57,67.6395)">
                        <path d="M3420.47,250.72L3420.47,262.651C3420.47,265.944 3411.79,268.617 3401.11,268.617L3205.78,268.617C3195.09,268.617 3186.41,265.944 3186.41,262.651L3186.41,250.72C3186.41,247.427 3195.09,244.754 3205.78,244.754L3401.11,244.754C3411.79,244.754 3420.47,247.427 3420.47,250.72Z" style="fill:rgb(255,182,100);stroke:black;stroke-width:6.99px;"/>
                    </g>
                </g>
                <g transform="matrix(1,0,0,1,-390.417,735.158)">
                    <g transform="matrix(0.262473,0,0,1.3617,1837.73,-36.9859)">
                        <path d="M3420.47,250.72L3420.47,262.651C3420.47,265.944 3406.6,268.617 3389.52,268.617L3217.36,268.617C3200.28,268.617 3186.41,265.944 3186.41,262.651L3186.41,250.72C3186.41,247.427 3200.28,244.754 3217.36,244.754L3389.52,244.754C3406.6,244.754 3420.47,247.427 3420.47,250.72Z" style="fill:rgb(232,123,64);stroke:black;stroke-width:6.76px;"/>
                    </g>
                    <g transform="matrix(0.262473,0,0,1.3617,1886.73,-19.2158)">
                        <path d="M3420.47,250.72L3420.47,262.651C3420.47,265.944 3406.6,268.617 3389.52,268.617L3217.36,268.617C3200.28,268.617 3186.41,265.944 3186.41,262.651L3186.41,250.72C3186.41,247.427 3200.28,244.754 3217.36,244.754L3389.52,244.754C3406.6,244.754 3420.47,247.427 3420.47,250.72Z" style="fill:rgb(232,123,64);stroke:black;stroke-width:6.76px;"/>
                    </g>
                    <g transform="matrix(0.490239,0,0,1.3617,1090.91,-12.6155)">
                        <path d="M3420.47,250.72L3420.47,262.651C3420.47,265.944 3413.05,268.617 3403.9,268.617L3202.98,268.617C3193.84,268.617 3186.41,265.944 3186.41,262.651L3186.41,250.72C3186.41,247.427 3193.84,244.754 3202.98,244.754L3403.9,244.754C3413.05,244.754 3420.47,247.427 3420.47,250.72Z" style="fill:rgb(232,123,64);stroke:black;stroke-width:6.48px;"/>
                    </g>
                    <g transform="matrix(0.746204,0,0,2,256.255,-138.886)">
                        <path d="M3420.47,250.72L3420.47,262.651C3420.47,265.944 3413.31,268.617 3404.48,268.617L3202.4,268.617C3193.58,268.617 3186.41,265.944 3186.41,262.651L3186.41,250.72C3186.41,247.427 3193.58,244.754 3202.4,244.754L3404.48,244.754C3413.31,244.754 3420.47,247.427 3420.47,250.72Z" style="fill:rgb(232,123,64);stroke:black;stroke-width:4.39px;"/>
                    </g>
                    <g transform="matrix(0.746204,0,0,2,296.365,-125.178)">
                        <path d="M3420.47,250.72L3420.47,262.651C3420.47,265.944 3413.31,268.617 3404.48,268.617L3202.4,268.617C3193.58,268.617 3186.41,265.944 3186.41,262.651L3186.41,250.72C3186.41,247.427 3193.58,244.754 3202.4,244.754L3404.48,244.754C3413.31,244.754 3420.47,247.427 3420.47,250.72Z" style="fill:rgb(232,123,64);stroke:black;stroke-width:4.39px;"/>
                    </g>
                    <g transform="matrix(0.490239,0,0,1.3617,1158.18,5.15461)">
                        <path d="M3420.47,250.72L3420.47,262.651C3420.47,265.944 3413.05,268.617 3403.9,268.617L3202.98,268.617C3193.84,268.617 3186.41,265.944 3186.41,262.651L3186.41,250.72C3186.41,247.427 3193.84,244.754 3202.98,244.754L3403.9,244.754C3413.05,244.754 3420.47,247.427 3420.47,250.72Z" style="fill:rgb(232,123,64);stroke:black;stroke-width:6.48px;"/>
                    </g>
                    <g transform="matrix(0.278747,0,0,0.904807,1829.79,133.469)">
                        <path d="M3420.47,250.72L3420.47,262.651C3420.47,265.944 3411.79,268.617 3401.11,268.617L3205.78,268.617C3195.09,268.617 3186.41,265.944 3186.41,262.651L3186.41,250.72C3186.41,247.427 3195.09,244.754 3205.78,244.754L3401.11,244.754C3411.79,244.754 3420.47,247.427 3420.47,250.72Z" style="fill:rgb(255,182,100);stroke:black;stroke-width:9.91px;"/>
                    </g>
                    <g transform="matrix(0.278747,0,0,0.904807,1745.13,124.838)">
                        <path d="M3420.47,250.72L3420.47,262.651C3420.47,265.944 3411.79,268.617 3401.11,268.617L3205.78,268.617C3195.09,268.617 3186.41,265.944 3186.41,262.651L3186.41,250.72C3186.41,247.427 3195.09,244.754 3205.78,244.754L3401.11,244.754C3411.79,244.754 3420.47,247.427 3420.47,250.72Z" style="fill:rgb(255,182,100);stroke:black;stroke-width:9.91px;"/>
                    </g>
                    <g transform="matrix(0.228506,0.230876,-0.74942,0.741726,2225.3,-629.485)">
                        <path d="M3420.47,250.72L3420.47,262.651C3420.47,265.944 3411.79,268.617 3401.11,268.617L3205.78,268.617C3195.09,268.617 3186.41,265.944 3186.41,262.651L3186.41,250.72C3186.41,247.427 3195.09,244.754 3205.78,244.754L3401.11,244.754C3411.79,244.754 3420.47,247.427 3420.47,250.72Z" style="fill:rgb(255,182,100);stroke:black;stroke-width:8.5px;"/>
                    </g>
                    <g transform="matrix(0.324837,-2.77556e-17,1.11022e-16,1.05441,1574.6,114.881)">
                        <path d="M3420.47,250.72L3420.47,262.651C3420.47,265.944 3411.79,268.617 3401.11,268.617L3205.78,268.617C3195.09,268.617 3186.41,265.944 3186.41,262.651L3186.41,250.72C3186.41,247.427 3195.09,244.754 3205.78,244.754L3401.11,244.754C3411.79,244.754 3420.47,247.427 3420.47,250.72Z" style="fill:rgb(255,182,100);stroke:black;stroke-width:8.5px;"/>
                    </g>
                    <g transform="matrix(0.324837,-2.77556e-17,1.11022e-16,1.05441,1623.85,128.589)">
                        <path d="M3420.47,250.72L3420.47,262.651C3420.47,265.944 3411.79,268.617 3401.11,268.617L3205.78,268.617C3195.09,268.617 3186.41,265.944 3186.41,262.651L3186.41,250.72C3186.41,247.427 3195.09,244.754 3205.78,244.754L3401.11,244.754C3411.79,244.754 3420.47,247.427 3420.47,250.72Z" style="fill:rgb(255,182,100);stroke:black;stroke-width:8.5px;"/>
                    </g>
                    <g transform="matrix(0.270607,-3.39163e-17,9.24877e-17,1.28846,1938.81,46.4278)">
                        <path d="M3420.47,250.72L3420.47,262.651C3420.47,265.944 3407.74,268.617 3392.07,268.617L3214.82,268.617C3199.14,268.617 3186.41,265.944 3186.41,262.651L3186.41,250.72C3186.41,247.427 3199.14,244.754 3214.82,244.754L3392.07,244.754C3407.74,244.754 3420.47,247.427 3420.47,250.72Z" style="fill:rgb(255,182,100);stroke:black;stroke-width:7.12px;"/>
                    </g>
                    <g transform="matrix(0.395163,-3.37646e-17,1.35058e-16,1.28269,1551.57,67.6395)">
                        <path d="M3420.47,250.72L3420.47,262.651C3420.47,265.944 3411.79,268.617 3401.11,268.617L3205.78,268.617C3195.09,268.617 3186.41,265.944 3186.41,262.651L3186.41,250.72C3186.41,247.427 3195.09,244.754 3205.78,244.754L3401.11,244.754C3411.79,244.754 3420.47,247.427 3420.47,250.72Z" style="fill:rgb(255,182,100);stroke:black;stroke-width:6.99px;"/>
                    </g>
                </g>
                <g transform="matrix(0.3125,0,0,0.3125,1303.76,477.251)">
                    <g transform="matrix(2.38785,0,0,6.4,-6678.64,192.457)">
                        <path d="M3420.47,250.72L3420.47,262.651C3420.47,265.944 3413.31,268.617 3404.48,268.617L3202.4,268.617C3193.58,268.617 3186.41,265.944 3186.41,262.651L3186.41,250.72C3186.41,247.427 3193.58,244.754 3202.4,244.754L3404.48,244.754C3413.31,244.754 3420.47,247.427 3420.47,250.72Z" style="fill:rgb(232,123,64);stroke:black;stroke-width:4.39px;"/>
                    </g>
                    <g transform="matrix(2.38785,0,0,6.4,-6550.29,236.324)">
                        <path d="M3420.47,250.72L3420.47,262.651C3420.47,265.944 3413.31,268.617 3404.48,268.617L3202.4,268.617C3193.58,268.617 3186.41,265.944 3186.41,262.651L3186.41,250.72C3186.41,247.427 3193.58,244.754 3202.4,244.754L3404.48,244.754C3413.31,244.754 3420.47,247.427 3420.47,250.72Z" style="fill:rgb(232,123,64);stroke:black;stroke-width:4.39px;"/>
                    </g>
                    <g transform="matrix(0.891989,0,0,2.89538,-1914.24,1036.37)">
                        <path d="M3420.47,250.72L3420.47,262.651C3420.47,265.944 3411.79,268.617 3401.11,268.617L3205.78,268.617C3195.09,268.617 3186.41,265.944 3186.41,262.651L3186.41,250.72C3186.41,247.427 3195.09,244.754 3205.78,244.754L3401.11,244.754C3411.79,244.754 3420.47,247.427 3420.47,250.72Z" style="fill:rgb(255,182,100);stroke:black;stroke-width:9.91px;"/>
                    </g>
                    <g transform="matrix(1.03948,-8.88178e-17,3.55271e-16,3.37412,-2302.35,1048.38)">
                        <path d="M3420.47,250.72L3420.47,262.651C3420.47,265.944 3411.79,268.617 3401.11,268.617L3205.78,268.617C3195.09,268.617 3186.41,265.944 3186.41,262.651L3186.41,250.72C3186.41,247.427 3195.09,244.754 3205.78,244.754L3401.11,244.754C3411.79,244.754 3420.47,247.427 3420.47,250.72Z" style="fill:rgb(255,182,100);stroke:black;stroke-width:8.5px;"/>
                    </g>
                    <g transform="matrix(1.26452,-1.08047e-16,4.32187e-16,4.10462,-2533.65,853.339)">
                        <path d="M3420.47,250.72L3420.47,262.651C3420.47,265.944 3411.79,268.617 3401.11,268.617L3205.78,268.617C3195.09,268.617 3186.41,265.944 3186.41,262.651L3186.41,250.72C3186.41,247.427 3195.09,244.754 3205.78,244.754L3401.11,244.754C3411.79,244.754 3420.47,247.427 3420.47,250.72Z" style="fill:rgb(255,182,100);stroke:black;stroke-width:6.99px;"/>
                    </g>
                </g>
                <g transform="matrix(-1,0,0,1,4231.53,739.807)">
                    <g transform="matrix(0.262473,0,0,1.3617,1837.73,-36.9859)">
                        <path d="M3420.47,250.72L3420.47,262.651C3420.47,265.944 3406.6,268.617 3389.52,268.617L3217.36,268.617C3200.28,268.617 3186.41,265.944 3186.41,262.651L3186.41,250.72C3186.41,247.427 3200.28,244.754 3217.36,244.754L3389.52,244.754C3406.6,244.754 3420.47,247.427 3420.47,250.72Z" style="fill:rgb(232,123,64);stroke:black;stroke-width:6.76px;"/>
                    </g>
                    <g transform="matrix(0.262473,0,0,1.3617,1886.73,-19.2158)">
                        <path d="M3420.47,250.72L3420.47,262.651C3420.47,265.944 3406.6,268.617 3389.52,268.617L3217.36,268.617C3200.28,268.617 3186.41,265.944 3186.41,262.651L3186.41,250.72C3186.41,247.427 3200.28,244.754 3217.36,244.754L3389.52,244.754C3406.6,244.754 3420.47,247.427 3420.47,250.72Z" style="fill:rgb(232,123,64);stroke:black;stroke-width:6.76px;"/>
                    </g>
                    <g transform="matrix(0.490239,0,0,1.3617,1090.91,-12.6155)">
                        <path d="M3420.47,250.72L3420.47,262.651C3420.47,265.944 3413.05,268.617 3403.9,268.617L3202.98,268.617C3193.84,268.617 3186.41,265.944 3186.41,262.651L3186.41,250.72C3186.41,247.427 3193.84,244.754 3202.98,244.754L3403.9,244.754C3413.05,244.754 3420.47,247.427 3420.47,250.72Z" style="fill:rgb(232,123,64);stroke:black;stroke-width:6.48px;"/>
                    </g>
                    <g transform="matrix(0.746204,0,0,2,256.255,-138.886)">
                        <path d="M3420.47,250.72L3420.47,262.651C3420.47,265.944 3413.31,268.617 3404.48,268.617L3202.4,268.617C3193.58,268.617 3186.41,265.944 3186.41,262.651L3186.41,250.72C3186.41,247.427 3193.58,244.754 3202.4,244.754L3404.48,244.754C3413.31,244.754 3420.47,247.427 3420.47,250.72Z" style="fill:rgb(232,123,64);stroke:black;stroke-width:4.39px;"/>
                    </g>
                    <g transform="matrix(0.746204,0,0,2,296.365,-125.178)">
                        <path d="M3420.47,250.72L3420.47,262.651C3420.47,265.944 3413.31,268.617 3404.48,268.617L3202.4,268.617C3193.58,268.617 3186.41,265.944 3186.41,262.651L3186.41,250.72C3186.41,247.427 3193.58,244.754 3202.4,244.754L3404.48,244.754C3413.31,244.754 3420.47,247.427 3420.47,250.72Z" style="fill:rgb(232,123,64);stroke:black;stroke-width:4.39px;"/>
                    </g>
                    <g transform="matrix(0.490239,0,0,1.3617,1158.18,5.15461)">
                        <path d="M3420.47,250.72L3420.47,262.651C3420.47,265.944 3413.05,268.617 3403.9,268.617L3202.98,268.617C3193.84,268.617 3186.41,265.944 3186.41,262.651L3186.41,250.72C3186.41,247.427 3193.84,244.754 3202.98,244.754L3403.9,244.754C3413.05,244.754 3420.47,247.427 3420.47,250.72Z" style="fill:rgb(232,123,64);stroke:black;stroke-width:6.48px;"/>
                    </g>
                    <g transform="matrix(0.278747,0,0,0.904807,1829.79,133.469)">
                        <path d="M3420.47,250.72L3420.47,262.651C3420.47,265.944 3411.79,268.617 3401.11,268.617L3205.78,268.617C3195.09,268.617 3186.41,265.944 3186.41,262.651L3186.41,250.72C3186.41,247.427 3195.09,244.754 3205.78,244.754L3401.11,244.754C3411.79,244.754 3420.47,247.427 3420.47,250.72Z" style="fill:rgb(255,182,100);stroke:black;stroke-width:9.91px;"/>
                    </g>
                    <g transform="matrix(0.278747,0,0,0.904807,1745.13,124.838)">
                        <path d="M3420.47,250.72L3420.47,262.651C3420.47,265.944 3411.79,268.617 3401.11,268.617L3205.78,268.617C3195.09,268.617 3186.41,265.944 3186.41,262.651L3186.41,250.72C3186.41,247.427 3195.09,244.754 3205.78,244.754L3401.11,244.754C3411.79,244.754 3420.47,247.427 3420.47,250.72Z" style="fill:rgb(255,182,100);stroke:black;stroke-width:9.91px;"/>
                    </g>
                    <g transform="matrix(0.228506,0.230876,-0.74942,0.741726,2225.3,-629.485)">
                        <path d="M3420.47,250.72L3420.47,262.651C3420.47,265.944 3411.79,268.617 3401.11,268.617L3205.78,268.617C3195.09,268.617 3186.41,265.944 3186.41,262.651L3186.41,250.72C3186.41,247.427 3195.09,244.754 3205.78,244.754L3401.11,244.754C3411.79,244.754 3420.47,247.427 3420.47,250.72Z" style="fill:rgb(255,182,100);stroke:black;stroke-width:8.5px;"/>
                    </g>
                    <g transform="matrix(0.324837,-2.80393e-17,1.11022e-16,1.06519,1574.6,112.242)">
                        <path d="M3420.47,250.72L3420.47,262.651C3420.47,265.944 3411.71,268.617 3400.91,268.617L3205.98,268.617C3195.18,268.617 3186.41,265.944 3186.41,262.651L3186.41,250.72C3186.41,247.427 3195.18,244.754 3205.98,244.754L3400.91,244.754C3411.71,244.754 3420.47,247.427 3420.47,250.72Z" style="fill:rgb(255,182,100);stroke:black;stroke-width:8.42px;"/>
                    </g>
                    <g transform="matrix(0.324837,-2.77556e-17,1.11022e-16,1.05441,1623.85,128.589)">
                        <path d="M3420.47,250.72L3420.47,262.651C3420.47,265.944 3411.79,268.617 3401.11,268.617L3205.78,268.617C3195.09,268.617 3186.41,265.944 3186.41,262.651L3186.41,250.72C3186.41,247.427 3195.09,244.754 3205.78,244.754L3401.11,244.754C3411.79,244.754 3420.47,247.427 3420.47,250.72Z" style="fill:rgb(255,182,100);stroke:black;stroke-width:8.5px;"/>
                    </g>
                    <g transform="matrix(0.270607,-3.39163e-17,9.24877e-17,1.28846,1938.81,46.4278)">
                        <path d="M3420.47,250.72L3420.47,262.651C3420.47,265.944 3407.74,268.617 3392.07,268.617L3214.82,268.617C3199.14,268.617 3186.41,265.944 3186.41,262.651L3186.41,250.72C3186.41,247.427 3199.14,244.754 3214.82,244.754L3392.07,244.754C3407.74,244.754 3420.47,247.427 3420.47,250.72Z" style="fill:rgb(255,182,100);stroke:black;stroke-width:7.12px;"/>
                    </g>
                    <g transform="matrix(0.395163,-3.37646e-17,1.35058e-16,1.28269,1551.57,67.6395)">
                        <path d="M3420.47,250.72L3420.47,262.651C3420.47,265.944 3411.79,268.617 3401.11,268.617L3205.78,268.617C3195.09,268.617 3186.41,265.944 3186.41,262.651L3186.41,250.72C3186.41,247.427 3195.09,244.754 3205.78,244.754L3401.11,244.754C3411.79,244.754 3420.47,247.427 3420.47,250.72Z" style="fill:rgb(255,182,100);stroke:black;stroke-width:6.99px;"/>
                    </g>
                </g>
                <g transform="matrix(-1,0,0,1,4752.14,738.257)">
                    <g transform="matrix(0.262473,0,0,1.3617,1837.73,-36.9859)">
                        <path d="M3420.47,250.72L3420.47,262.651C3420.47,265.944 3406.6,268.617 3389.52,268.617L3217.36,268.617C3200.28,268.617 3186.41,265.944 3186.41,262.651L3186.41,250.72C3186.41,247.427 3200.28,244.754 3217.36,244.754L3389.52,244.754C3406.6,244.754 3420.47,247.427 3420.47,250.72Z" style="fill:rgb(232,123,64);stroke:black;stroke-width:6.76px;"/>
                    </g>
                    <g transform="matrix(0.262473,0,0,1.3617,1886.73,-19.2158)">
                        <path d="M3420.47,250.72L3420.47,262.651C3420.47,265.944 3406.6,268.617 3389.52,268.617L3217.36,268.617C3200.28,268.617 3186.41,265.944 3186.41,262.651L3186.41,250.72C3186.41,247.427 3200.28,244.754 3217.36,244.754L3389.52,244.754C3406.6,244.754 3420.47,247.427 3420.47,250.72Z" style="fill:rgb(232,123,64);stroke:black;stroke-width:6.76px;"/>
                    </g>
                    <g transform="matrix(0.490239,0,0,1.3617,1090.91,-12.6155)">
                        <path d="M3420.47,250.72L3420.47,262.651C3420.47,265.944 3413.05,268.617 3403.9,268.617L3202.98,268.617C3193.84,268.617 3186.41,265.944 3186.41,262.651L3186.41,250.72C3186.41,247.427 3193.84,244.754 3202.98,244.754L3403.9,244.754C3413.05,244.754 3420.47,247.427 3420.47,250.72Z" style="fill:rgb(232,123,64);stroke:black;stroke-width:6.48px;"/>
                    </g>
                    <g transform="matrix(0.746204,0,0,2,256.255,-138.886)">
                        <path d="M3420.47,250.72L3420.47,262.651C3420.47,265.944 3413.31,268.617 3404.48,268.617L3202.4,268.617C3193.58,268.617 3186.41,265.944 3186.41,262.651L3186.41,250.72C3186.41,247.427 3193.58,244.754 3202.4,244.754L3404.48,244.754C3413.31,244.754 3420.47,247.427 3420.47,250.72Z" style="fill:rgb(232,123,64);stroke:black;stroke-width:4.39px;"/>
                    </g>
                    <g transform="matrix(0.746204,0,0,2,296.365,-125.178)">
                        <path d="M3420.47,250.72L3420.47,262.651C3420.47,265.944 3413.31,268.617 3404.48,268.617L3202.4,268.617C3193.58,268.617 3186.41,265.944 3186.41,262.651L3186.41,250.72C3186.41,247.427 3193.58,244.754 3202.4,244.754L3404.48,244.754C3413.31,244.754 3420.47,247.427 3420.47,250.72Z" style="fill:rgb(232,123,64);stroke:black;stroke-width:4.39px;"/>
                    </g>
                    <g transform="matrix(0.490239,0,0,1.3617,1158.18,5.15461)">
                        <path d="M3420.47,250.72L3420.47,262.651C3420.47,265.944 3413.05,268.617 3403.9,268.617L3202.98,268.617C3193.84,268.617 3186.41,265.944 3186.41,262.651L3186.41,250.72C3186.41,247.427 3193.84,244.754 3202.98,244.754L3403.9,244.754C3413.05,244.754 3420.47,247.427 3420.47,250.72Z" style="fill:rgb(232,123,64);stroke:black;stroke-width:6.48px;"/>
                    </g>
                    <g transform="matrix(0.278747,0,0,0.904807,1829.79,133.469)">
                        <path d="M3420.47,250.72L3420.47,262.651C3420.47,265.944 3411.79,268.617 3401.11,268.617L3205.78,268.617C3195.09,268.617 3186.41,265.944 3186.41,262.651L3186.41,250.72C3186.41,247.427 3195.09,244.754 3205.78,244.754L3401.11,244.754C3411.79,244.754 3420.47,247.427 3420.47,250.72Z" style="fill:rgb(255,182,100);stroke:black;stroke-width:9.91px;"/>
                    </g>
                    <g transform="matrix(0.278747,0,0,0.904807,1745.13,124.838)">
                        <path d="M3420.47,250.72L3420.47,262.651C3420.47,265.944 3411.79,268.617 3401.11,268.617L3205.78,268.617C3195.09,268.617 3186.41,265.944 3186.41,262.651L3186.41,250.72C3186.41,247.427 3195.09,244.754 3205.78,244.754L3401.11,244.754C3411.79,244.754 3420.47,247.427 3420.47,250.72Z" style="fill:rgb(255,182,100);stroke:black;stroke-width:9.91px;"/>
                    </g>
                    <g transform="matrix(0.228506,0.230876,-0.74942,0.741726,2225.3,-629.485)">
                        <path d="M3420.47,250.72L3420.47,262.651C3420.47,265.944 3411.79,268.617 3401.11,268.617L3205.78,268.617C3195.09,268.617 3186.41,265.944 3186.41,262.651L3186.41,250.72C3186.41,247.427 3195.09,244.754 3205.78,244.754L3401.11,244.754C3411.79,244.754 3420.47,247.427 3420.47,250.72Z" style="fill:rgb(255,182,100);stroke:black;stroke-width:8.5px;"/>
                    </g>
                    <g transform="matrix(0.324837,-2.77556e-17,1.11022e-16,1.05441,1574.6,114.881)">
                        <path d="M3420.47,250.72L3420.47,262.651C3420.47,265.944 3411.79,268.617 3401.11,268.617L3205.78,268.617C3195.09,268.617 3186.41,265.944 3186.41,262.651L3186.41,250.72C3186.41,247.427 3195.09,244.754 3205.78,244.754L3401.11,244.754C3411.79,244.754 3420.47,247.427 3420.47,250.72Z" style="fill:rgb(255,182,100);stroke:black;stroke-width:8.5px;"/>
                    </g>
                    <g transform="matrix(0.324837,-2.77556e-17,1.11022e-16,1.05441,1623.85,128.589)">
                        <path d="M3420.47,250.72L3420.47,262.651C3420.47,265.944 3411.79,268.617 3401.11,268.617L3205.78,268.617C3195.09,268.617 3186.41,265.944 3186.41,262.651L3186.41,250.72C3186.41,247.427 3195.09,244.754 3205.78,244.754L3401.11,244.754C3411.79,244.754 3420.47,247.427 3420.47,250.72Z" style="fill:rgb(255,182,100);stroke:black;stroke-width:8.5px;"/>
                    </g>
                    <g transform="matrix(0.270607,-3.39163e-17,9.24877e-17,1.28846,1938.81,46.4278)">
                        <path d="M3420.47,250.72L3420.47,262.651C3420.47,265.944 3407.74,268.617 3392.07,268.617L3214.82,268.617C3199.14,268.617 3186.41,265.944 3186.41,262.651L3186.41,250.72C3186.41,247.427 3199.14,244.754 3214.82,244.754L3392.07,244.754C3407.74,244.754 3420.47,247.427 3420.47,250.72Z" style="fill:rgb(255,182,100);stroke:black;stroke-width:7.12px;"/>
                    </g>
                    <g transform="matrix(0.395163,-3.37646e-17,1.35058e-16,1.28269,1551.57,67.6395)">
                        <path d="M3420.47,250.72L3420.47,262.651C3420.47,265.944 3411.79,268.617 3401.11,268.617L3205.78,268.617C3195.09,268.617 3186.41,265.944 3186.41,262.651L3186.41,250.72C3186.41,247.427 3195.09,244.754 3205.78,244.754L3401.11,244.754C3411.79,244.754 3420.47,247.427 3420.47,250.72Z" style="fill:rgb(255,182,100);stroke:black;stroke-width:6.99px;"/>
                    </g>
                </g>
                <g transform="matrix(0.3125,0,0,0.3125,1303.36,476.439)">
                    <g transform="matrix(2.38785,0,0,6.4,-6901.95,75.7071)">
                        <path d="M3420.47,250.72L3420.47,262.651C3420.47,265.944 3413.31,268.617 3404.48,268.617L3202.4,268.617C3193.58,268.617 3186.41,265.944 3186.41,262.651L3186.41,250.72C3186.41,247.427 3193.58,244.754 3202.4,244.754L3404.48,244.754C3413.31,244.754 3420.47,247.427 3420.47,250.72Z" style="fill:rgb(232,123,64);stroke:black;stroke-width:4.39px;"/>
                    </g>
                    <g transform="matrix(2.38785,0,0,6.4,-6773.6,119.574)">
                        <path d="M3420.47,250.72L3420.47,262.651C3420.47,265.944 3413.31,268.617 3404.48,268.617L3202.4,268.617C3193.58,268.617 3186.41,265.944 3186.41,262.651L3186.41,250.72C3186.41,247.427 3193.58,244.754 3202.4,244.754L3404.48,244.754C3413.31,244.754 3420.47,247.427 3420.47,250.72Z" style="fill:rgb(232,123,64);stroke:black;stroke-width:4.39px;"/>
                    </g>
                    <g transform="matrix(0.891989,0,0,2.89538,-1866.63,947.245)">
                        <path d="M3420.47,250.72L3420.47,262.651C3420.47,265.944 3411.79,268.617 3401.11,268.617L3205.78,268.617C3195.09,268.617 3186.41,265.944 3186.41,262.651L3186.41,250.72C3186.41,247.427 3195.09,244.754 3205.78,244.754L3401.11,244.754C3411.79,244.754 3420.47,247.427 3420.47,250.72Z" style="fill:rgb(255,182,100);stroke:black;stroke-width:9.91px;"/>
                    </g>
                    <g transform="matrix(0.891989,0,0,2.89538,-2137.55,919.625)">
                        <path d="M3420.47,250.72L3420.47,262.651C3420.47,265.944 3411.79,268.617 3401.11,268.617L3205.78,268.617C3195.09,268.617 3186.41,265.944 3186.41,262.651L3186.41,250.72C3186.41,247.427 3195.09,244.754 3205.78,244.754L3401.11,244.754C3411.79,244.754 3420.47,247.427 3420.47,250.72Z" style="fill:rgb(255,182,100);stroke:black;stroke-width:9.91px;"/>
                    </g>
                    <g transform="matrix(1.03948,-8.88178e-17,3.55271e-16,3.37412,-2683.25,887.761)">
                        <path d="M3420.47,250.72L3420.47,262.651C3420.47,265.944 3411.79,268.617 3401.11,268.617L3205.78,268.617C3195.09,268.617 3186.41,265.944 3186.41,262.651L3186.41,250.72C3186.41,247.427 3195.09,244.754 3205.78,244.754L3401.11,244.754C3411.79,244.754 3420.47,247.427 3420.47,250.72Z" style="fill:rgb(255,182,100);stroke:black;stroke-width:8.5px;"/>
                    </g>
                    <g transform="matrix(1.03948,-8.88178e-17,3.55271e-16,3.37412,-2525.66,931.628)">
                        <path d="M3420.47,250.72L3420.47,262.651C3420.47,265.944 3411.79,268.617 3401.11,268.617L3205.78,268.617C3195.09,268.617 3186.41,265.944 3186.41,262.651L3186.41,250.72C3186.41,247.427 3195.09,244.754 3205.78,244.754L3401.11,244.754C3411.79,244.754 3420.47,247.427 3420.47,250.72Z" style="fill:rgb(255,182,100);stroke:black;stroke-width:8.5px;"/>
                    </g>
                    <g transform="matrix(0.865941,-1.08532e-16,2.9596e-16,4.12306,-1517.79,668.712)">
                        <path d="M3420.47,250.72L3420.47,262.651C3420.47,265.944 3407.74,268.617 3392.07,268.617L3214.82,268.617C3199.14,268.617 3186.41,265.944 3186.41,262.651L3186.41,250.72C3186.41,247.427 3199.14,244.754 3214.82,244.754L3392.07,244.754C3407.74,244.754 3420.47,247.427 3420.47,250.72Z" style="fill:rgb(255,182,100);stroke:black;stroke-width:7.12px;"/>
                    </g>
                    <g transform="matrix(1.26452,-1.08047e-16,4.32187e-16,4.10462,-2756.96,736.59)">
                        <path d="M3420.47,250.72L3420.47,262.651C3420.47,265.944 3411.79,268.617 3401.11,268.617L3205.78,268.617C3195.09,268.617 3186.41,265.944 3186.41,262.651L3186.41,250.72C3186.41,247.427 3195.09,244.754 3205.78,244.754L3401.11,244.754C3411.79,244.754 3420.47,247.427 3420.47,250.72Z" style="fill:rgb(255,182,100);stroke:black;stroke-width:6.99px;"/>
                    </g>
                </g>
                <g transform="matrix(1,0,0,1,-911.025,736.708)">
                    <g transform="matrix(0.262473,0,0,1.3617,1886.73,-19.2158)">
                        <path d="M3420.47,250.72L3420.47,262.651C3420.47,265.944 3406.6,268.617 3389.52,268.617L3217.36,268.617C3200.28,268.617 3186.41,265.944 3186.41,262.651L3186.41,250.72C3186.41,247.427 3200.28,244.754 3217.36,244.754L3389.52,244.754C3406.6,244.754 3420.47,247.427 3420.47,250.72Z" style="fill:rgb(232,123,64);stroke:black;stroke-width:6.76px;"/>
                    </g>
                    <g transform="matrix(0.490239,0,0,1.3617,1090.91,-12.6155)">
                        <path d="M3420.47,250.72L3420.47,262.651C3420.47,265.944 3413.05,268.617 3403.9,268.617L3202.98,268.617C3193.84,268.617 3186.41,265.944 3186.41,262.651L3186.41,250.72C3186.41,247.427 3193.84,244.754 3202.98,244.754L3403.9,244.754C3413.05,244.754 3420.47,247.427 3420.47,250.72Z" style="fill:rgb(232,123,64);stroke:black;stroke-width:6.48px;"/>
                    </g>
                    <g transform="matrix(0.82603,0,0,2,-16.7887,-138.886)">
                        <path d="M3420.47,250.72L3420.47,262.651C3420.47,265.944 3414,268.617 3406.03,268.617L3200.86,268.617C3192.89,268.617 3186.41,265.944 3186.41,262.651L3186.41,250.72C3186.41,247.427 3192.89,244.754 3200.86,244.754L3406.03,244.754C3414,244.754 3420.47,247.427 3420.47,250.72Z" style="fill:rgb(232,123,64);stroke:black;stroke-width:4.33px;"/>
                    </g>
                    <g transform="matrix(0.746204,0,0,2,296.365,-125.178)">
                        <path d="M3420.47,250.72L3420.47,262.651C3420.47,265.944 3413.31,268.617 3404.48,268.617L3202.4,268.617C3193.58,268.617 3186.41,265.944 3186.41,262.651L3186.41,250.72C3186.41,247.427 3193.58,244.754 3202.4,244.754L3404.48,244.754C3413.31,244.754 3420.47,247.427 3420.47,250.72Z" style="fill:rgb(232,123,64);stroke:black;stroke-width:4.39px;"/>
                    </g>
                    <g transform="matrix(0.490239,0,0,1.3617,1158.18,5.15461)">
                        <path d="M3420.47,250.72L3420.47,262.651C3420.47,265.944 3413.05,268.617 3403.9,268.617L3202.98,268.617C3193.84,268.617 3186.41,265.944 3186.41,262.651L3186.41,250.72C3186.41,247.427 3193.84,244.754 3202.98,244.754L3403.9,244.754C3413.05,244.754 3420.47,247.427 3420.47,250.72Z" style="fill:rgb(232,123,64);stroke:black;stroke-width:6.48px;"/>
                    </g>
                    <g transform="matrix(0.278747,0,0,0.904807,1829.79,133.469)">
                        <path d="M3420.47,250.72L3420.47,262.651C3420.47,265.944 3411.79,268.617 3401.11,268.617L3205.78,268.617C3195.09,268.617 3186.41,265.944 3186.41,262.651L3186.41,250.72C3186.41,247.427 3195.09,244.754 3205.78,244.754L3401.11,244.754C3411.79,244.754 3420.47,247.427 3420.47,250.72Z" style="fill:rgb(255,182,100);stroke:black;stroke-width:9.91px;"/>
                    </g>
                    <g transform="matrix(0.278747,0,0,0.904807,1745.13,124.838)">
                        <path d="M3420.47,250.72L3420.47,262.651C3420.47,265.944 3411.79,268.617 3401.11,268.617L3205.78,268.617C3195.09,268.617 3186.41,265.944 3186.41,262.651L3186.41,250.72C3186.41,247.427 3195.09,244.754 3205.78,244.754L3401.11,244.754C3411.79,244.754 3420.47,247.427 3420.47,250.72Z" style="fill:rgb(255,182,100);stroke:black;stroke-width:9.91px;"/>
                    </g>
                    <g transform="matrix(0.228506,0.230876,-0.74942,0.741726,2225.3,-629.485)">
                        <path d="M3420.47,250.72L3420.47,262.651C3420.47,265.944 3411.79,268.617 3401.11,268.617L3205.78,268.617C3195.09,268.617 3186.41,265.944 3186.41,262.651L3186.41,250.72C3186.41,247.427 3195.09,244.754 3205.78,244.754L3401.11,244.754C3411.79,244.754 3420.47,247.427 3420.47,250.72Z" style="fill:rgb(255,182,100);stroke:black;stroke-width:8.5px;"/>
                    </g>
                    <g transform="matrix(0.324835,0.000874212,-0.00283768,1.05441,1916.87,34.5578)">
                        <path d="M3420.47,250.72L3420.47,262.651C3420.47,265.944 3411.79,268.617 3401.11,268.617L3205.78,268.617C3195.09,268.617 3186.41,265.944 3186.41,262.651L3186.41,250.72C3186.41,247.427 3195.09,244.754 3205.78,244.754L3401.11,244.754C3411.79,244.754 3420.47,247.427 3420.47,250.72Z" style="fill:rgb(255,182,100);stroke:black;stroke-width:8.5px;"/>
                    </g>
                    <g transform="matrix(0.324837,-2.90402e-17,1.11022e-16,1.10322,1574.6,102.936)">
                        <path d="M3420.47,250.72L3420.47,262.651C3420.47,265.944 3411.39,268.617 3400.21,268.617L3206.67,268.617C3195.49,268.617 3186.41,265.944 3186.41,262.651L3186.41,250.72C3186.41,247.427 3195.49,244.754 3206.67,244.754L3400.21,244.754C3411.39,244.754 3420.47,247.427 3420.47,250.72Z" style="fill:rgb(255,182,100);stroke:black;stroke-width:8.15px;"/>
                    </g>
                    <g transform="matrix(0.324837,-2.77556e-17,1.11022e-16,1.05441,1623.85,128.589)">
                        <path d="M3420.47,250.72L3420.47,262.651C3420.47,265.944 3411.79,268.617 3401.11,268.617L3205.78,268.617C3195.09,268.617 3186.41,265.944 3186.41,262.651L3186.41,250.72C3186.41,247.427 3195.09,244.754 3205.78,244.754L3401.11,244.754C3411.79,244.754 3420.47,247.427 3420.47,250.72Z" style="fill:rgb(255,182,100);stroke:black;stroke-width:8.5px;"/>
                    </g>
                    <g transform="matrix(0.270607,-3.39163e-17,9.24877e-17,1.28846,1938.81,46.4278)">
                        <path d="M3420.47,250.72L3420.47,262.651C3420.47,265.944 3407.74,268.617 3392.07,268.617L3214.82,268.617C3199.14,268.617 3186.41,265.944 3186.41,262.651L3186.41,250.72C3186.41,247.427 3199.14,244.754 3214.82,244.754L3392.07,244.754C3407.74,244.754 3420.47,247.427 3420.47,250.72Z" style="fill:rgb(255,182,100);stroke:black;stroke-width:7.12px;"/>
                    </g>
                    <g transform="matrix(0.395163,-3.37646e-17,1.35058e-16,1.28269,1551.57,67.6395)">
                        <path d="M3420.47,250.72L3420.47,262.651C3420.47,265.944 3411.79,268.617 3401.11,268.617L3205.78,268.617C3195.09,268.617 3186.41,265.944 3186.41,262.651L3186.41,250.72C3186.41,247.427 3195.09,244.754 3205.78,244.754L3401.11,244.754C3411.79,244.754 3420.47,247.427 3420.47,250.72Z" style="fill:rgb(255,182,100);stroke:black;stroke-width:6.99px;"/>
                    </g>
                    <g transform="matrix(0.270607,-3.39163e-17,9.24877e-17,1.28846,1729.63,47.9773)">
                        <path d="M3420.47,250.72L3420.47,262.651C3420.47,265.944 3407.74,268.617 3392.07,268.617L3214.82,268.617C3199.14,268.617 3186.41,265.944 3186.41,262.651L3186.41,250.72C3186.41,247.427 3199.14,244.754 3214.82,244.754L3392.07,244.754C3407.74,244.754 3420.47,247.427 3420.47,250.72Z" style="fill:rgb(255,182,100);stroke:black;stroke-width:7.12px;"/>
                    </g>
                </g>
            </g>
            <g transform="matrix(-0.141272,-0.989971,-0.989971,0.141272,4184.54,4600.06)">
                <g transform="matrix(3.2,0,0,3.2,-4251.25,-919.974)">
                    <path d="M2142.72,401.411L2171.01,419.712L2155.82,480.228L2142.72,401.411Z" style="fill:rgb(114,195,127);"/>
                </g>
                <g transform="matrix(3.2,0,0,3.2,-4251.25,-919.974)">
                    <path d="M2174.33,417.424L2198.87,408.898L2169.55,392.469L2143.76,400.787L2174.33,417.424Z" style="fill:rgb(84,185,90);"/>
                </g>
                <g transform="matrix(3.2,0,0,3.2,-4251.25,-919.974)">
                    <path d="M2201.78,412.849L2208.23,439.676L2172.88,419.088L2201.78,412.849Z" style="fill:rgb(133,209,145);"/>
                </g>
                <g transform="matrix(3.2,0,0,3.2,-4251.25,-919.974)">
                    <path d="M2205.94,411.185L2232.35,429.486L2236.72,456.937L2209.89,441.964L2205.94,411.185Z" style="fill:rgb(84,185,90);"/>
                </g>
                <g transform="matrix(3.2,0,0,3.2,-4251.25,-919.974)">
                    <path d="M2171.01,417.632L2206.57,441.34L2154.99,483.556L2171.01,417.632Z" style="fill:rgb(84,185,90);"/>
                </g>
                <g transform="matrix(3.2,0,0,3.2,-4251.25,-919.974)">
                    <path d="M2209.06,442.172L2237.14,460.056L2158.11,482.724L2209.06,442.172Z" style="fill:rgb(114,195,127);"/>
                </g>
                <g transform="matrix(1,0,0,1,266.551,-248.781)">
                    <g transform="matrix(3.2,0,0,3.2,-3610.73,-825.352)">
                        <path d="M1871.32,532.885L1858.97,449.376L1887.89,439.952L1948.33,475.696L1957.1,509.164L1871.32,532.885Z" style="fill:none;stroke:black;stroke-width:6.63px;"/>
                    </g>
                    <g transform="matrix(3.2,0,0,3.2,-4251.25,-919.974)">
                        <path d="M2118.37,487.452L2086.43,495.192L2071.81,561.155" style="fill:none;stroke:black;stroke-width:6.63px;"/>
                    </g>
                    <g transform="matrix(-1.36779,-2.89295,-2.89295,1.36779,6835.45,6101.64)">
                        <path d="M2118.37,487.452L2086.43,495.192L2071.81,561.155" style="fill:none;stroke:black;stroke-width:6.63px;"/>
                    </g>
                    <g transform="matrix(3.2,0,0,3.2,-4251.25,-919.974)">
                        <path d="M2059.13,478.945L2157.26,538.734" style="fill:none;stroke:black;stroke-width:6.63px;"/>
                    </g>
                </g>
            </g>
        </g>
    </g>
</svg>
