<?xml version="1.0" encoding="UTF-8" standalone="no"?>
<!DOCTYPE svg PUBLIC "-//W3C//DTD SVG 1.1//EN" "http://www.w3.org/Graphics/SVG/1.1/DTD/svg11.dtd">
<svg width="100%" height="100%" viewBox="0 0 24 24" version="1.1" xmlns="http://www.w3.org/2000/svg" xmlns:xlink="http://www.w3.org/1999/xlink" xml:space="preserve" xmlns:serif="http://www.serif.com/" style="fill-rule:evenodd;clip-rule:evenodd;stroke-linejoin:round;stroke-miterlimit:2;">
    <g>
        <path d="M2,11.99L2,7.991C2,7.52 2.112,7.064 2.317,6.656C2.339,6.589 2.367,6.523 2.404,6.46C2.448,6.384 2.5,6.316 2.559,6.256C2.805,5.915 3.124,5.623 3.503,5.406L10.503,1.397L10.505,1.396C11.431,0.869 12.569,0.869 13.495,1.396L13.497,1.397L20.495,5.404C20.874,5.62 21.194,5.913 21.441,6.256C21.5,6.316 21.552,6.384 21.596,6.46C21.633,6.524 21.662,6.59 21.684,6.658C21.887,7.065 21.999,7.519 22,7.988L22,7.99C22,7.99 22,12.002 22,12.007L22,16.008C22,17.073 21.429,18.059 20.497,18.593L13.496,22.602C13.033,22.867 12.516,23 12,23C11.484,23 10.967,22.867 10.504,22.602L3.504,18.594C2.572,18.061 2,17.076 2,16.009C2,16.009 2,11.996 2,11.99ZM11,20.582L11,17.588L4,13.7L4,16.009C4,16.36 4.19,16.683 4.497,16.858L11,20.582ZM20,16.008L20,13.7L18.489,14.539C18.006,14.807 17.397,14.633 17.129,14.151C16.861,13.668 17.035,13.059 17.517,12.791L20,11.412L20,8.536L13,12.577L13,15.301L14.517,14.458C15,14.19 15.609,14.364 15.877,14.846C16.145,15.329 15.971,15.938 15.489,16.206L13,17.588L13,20.582L19.503,16.859C19.809,16.683 20,16.359 20,16.008ZM5.042,6.829L12,10.845L18.958,6.829L12.505,3.134C12.192,2.956 11.808,2.956 11.495,3.134L5.042,6.829ZM4,11.412L11,15.3L11,12.577L4,8.536L4,11.412Z"/>
        <path d="M14,17L14,14C14,13.637 14.197,13.303 14.514,13.126L17.514,11.456C17.823,11.284 18.201,11.288 18.507,11.468C18.812,11.648 19,11.976 19,12.33L19,15.33C19,15.693 18.803,16.027 18.486,16.204L15.486,17.874C15.177,18.046 14.799,18.042 14.493,17.862C14.188,17.682 14,17.354 14,17ZM16,15.299L17,14.742L17,14.031L16,14.588L16,15.299Z"/>
    </g>
</svg>
