<?xml version="1.0" encoding="UTF-8" standalone="no"?>
<!DOCTYPE svg PUBLIC "-//W3C//DTD SVG 1.1//EN" "http://www.w3.org/Graphics/SVG/1.1/DTD/svg11.dtd">
<svg width="100%" height="100%" viewBox="0 0 1495 1503" version="1.1" xmlns="http://www.w3.org/2000/svg" xmlns:xlink="http://www.w3.org/1999/xlink" xml:space="preserve" xmlns:serif="http://www.serif.com/" style="fill-rule:evenodd;clip-rule:evenodd;stroke-linejoin:round;stroke-miterlimit:2;">
    <g transform="matrix(1,0,0,1,-30159.1,0)">
        <g id="fonticon" transform="matrix(0.778333,0,0,0.782812,30159.1,0)">
            <rect x="0" y="0" width="1920" height="1920" style="fill:none;"/>
            <clipPath id="_clip1">
                <rect x="0" y="0" width="1920" height="1920"/>
            </clipPath>
            <g clip-path="url(#_clip1)">
                <g transform="matrix(1.2848,0,0,1.27745,-25803.6,5736.43)">
                    <g transform="matrix(1,0,0,1,5150.81,-2973.04)">
                        <path d="M16123.2,-15.566L16123.2,-894.689C16123.2,-947.489 16114.2,-997.589 16096.2,-1044.99C16078.2,-1092.39 16053.6,-1135.29 16022.4,-1173.69C15991.2,-1212.09 15954.3,-1244.49 15911.7,-1270.89C15869.1,-1297.29 15822.6,-1315.89 15772.2,-1326.69L15772.2,-15.493L15590.4,-15.634L15590.4,-1326.69C15540,-1315.89 15493.5,-1297.29 15450.9,-1270.89C15408.3,-1244.49 15371.4,-1212.09 15340.2,-1173.69C15309,-1135.29 15284.4,-1092.39 15266.4,-1044.99C15248.4,-997.589 15239.4,-947.489 15239.4,-894.689L15239.4,-14.639L14933.4,-14.48L15057.6,-147.488L15057.6,-894.689C15057.6,-979.889 15074.1,-1060.29 15107.1,-1135.89C15140.1,-1211.49 15184.8,-1277.49 15241.2,-1333.89C15297.6,-1390.29 15363.6,-1434.99 15439.2,-1467.99C15514.8,-1500.99 15595.2,-1517.49 15680.4,-1517.49C15766.8,-1517.49 15847.8,-1500.99 15923.4,-1467.99C15999,-1434.99 16065,-1390.29 16121.4,-1333.89C16177.8,-1277.49 16222.5,-1211.49 16255.5,-1135.89C16288.5,-1060.29 16305,-979.889 16305,-894.689L16305,-152.173L16427.4,-14.479L16123.2,-15.566Z"/>
                    </g>
                    <g transform="matrix(1,0,0,1,-5675.01,-2692.56)">
                        <path d="M26948.6,-295.303L26948.6,-885.703C26948.6,-938.503 26939.6,-988.603 26921.6,-1036C26903.6,-1083.4 26879,-1126.3 26847.8,-1164.7C26816.6,-1203.1 26779.7,-1235.5 26737.1,-1261.9C26694.5,-1288.3 26648,-1306.9 26597.6,-1317.7L26597.6,-433.903L26727.2,-295.303L26284.4,-295.303L26415.8,-433.903L26415.8,-1317.7C26365.4,-1306.9 26318.9,-1288.3 26276.3,-1261.9C26233.7,-1235.5 26196.8,-1203.1 26165.6,-1164.7C26134.4,-1126.3 26109.8,-1083.4 26091.8,-1036C26073.8,-988.603 26064.8,-938.503 26064.8,-885.703L26064.8,-295.303L25758.8,-295.303L25883,-433.903L25883,-885.703C25883,-970.903 25899.5,-1051.3 25932.5,-1126.9C25965.5,-1202.5 26010.2,-1268.5 26066.6,-1324.9C26123,-1381.3 26189,-1426 26264.6,-1459C26340.2,-1492 26420.6,-1508.5 26505.8,-1508.5C26592.2,-1508.5 26673.2,-1492 26748.8,-1459C26824.4,-1426 26890.4,-1381.3 26946.8,-1324.9C27003.2,-1268.5 27047.9,-1202.5 27080.9,-1126.9C27113.9,-1051.3 27130.4,-970.903 27130.4,-885.703L27130.4,-433.903L27252.8,-295.303L26948.6,-295.303Z" style="fill-rule:nonzero;"/>
                    </g>
                </g>
            </g>
        </g>
    </g>
</svg>
