<?xml version="1.0" encoding="UTF-8" standalone="no"?>
<!DOCTYPE svg PUBLIC "-//W3C//DTD SVG 1.1//EN" "http://www.w3.org/Graphics/SVG/1.1/DTD/svg11.dtd">
<svg width="100%" height="100%" viewBox="0 0 685 764" version="1.1" xmlns="http://www.w3.org/2000/svg" xmlns:xlink="http://www.w3.org/1999/xlink" xml:space="preserve" xmlns:serif="http://www.serif.com/" style="fill-rule:evenodd;clip-rule:evenodd;stroke-linejoin:round;stroke-miterlimit:2;">
    <g transform="matrix(1,0,0,1,0,-7112.96)">
        <g id="fonticon-line" transform="matrix(0.35651,0,0,0.706667,0,7112.96)">
            <rect x="0" y="0" width="1920" height="1080" style="fill:none;"/>
            <clipPath id="_clip1">
                <rect x="0" y="0" width="1920" height="1080"/>
            </clipPath>
            <g clip-path="url(#_clip1)">
                <g transform="matrix(2.80497,0,0,1.41509,22535.4,-6694.55)">
                    <g>
                        <g transform="matrix(5.16565,0,0,5.1735,10003.5,-69211.6)">
                            <path d="M-3412.87,14377.3L-3364.6,14386.1C-3364.6,14386.1 -3363.15,14386.3 -3362.59,14387.5C-3361.83,14389.2 -3362.56,14390.2 -3362.56,14390.2L-3390.06,14438.7C-3390.06,14438.7 -3390.39,14439.3 -3391.18,14439.7C-3391.8,14440.1 -3392.77,14440 -3392.77,14440L-3447.75,14439.9C-3447.75,14439.9 -3449.44,14440.1 -3450.39,14438.8C-3451.33,14437.5 -3450.8,14436.2 -3450.8,14436.2L-3439.63,14403.5C-3439.63,14403.5 -3439.52,14403.2 -3439.43,14403.1C-3439.33,14402.9 -3439.06,14402.5 -3439.06,14402.5L-3415.39,14378C-3415.39,14378 -3414.85,14377.5 -3414.27,14377.3C-3413.5,14377.1 -3412.87,14377.3 -3412.87,14377.3ZM-3434.23,14406.3L-3443.55,14433.8L-3394.43,14434.1L-3370.09,14391.1L-3412.15,14383.3L-3434.23,14406.3Z"/>
                        </g>
                        <g transform="matrix(4.70803,0,0,4.70803,8382.59,-62517.5)">
                            <path d="M-3436.78,14405.8L-3448.87,14441.1C-3448.87,14441.1 -3449.52,14442.9 -3451.68,14443C-3453.81,14443.1 -3454.75,14440.9 -3454.75,14440.9L-3484.68,14387.8C-3484.68,14387.8 -3485.64,14386.3 -3484.9,14384.8C-3483.99,14383 -3482.36,14383 -3482.36,14383L-3459.41,14381.7C-3459.41,14381.7 -3457.71,14381.4 -3456.87,14381.8C-3455.89,14382.2 -3455.01,14383.3 -3455.01,14383.3L-3437.76,14401.2C-3437.76,14401.2 -3436.57,14402.2 -3436.38,14403.3C-3436.18,14404.4 -3436.78,14405.8 -3436.78,14405.8ZM-3476.09,14389.4L-3452.6,14431.3L-3443.56,14404.8L-3459.35,14388.4L-3476.09,14389.4Z"/>
                        </g>
                        <g transform="matrix(4.70803,0,0,4.70803,8372.4,-62574.2)">
                            <path d="M-3458.57,14387.8L-3481.66,14389.1C-3481.66,14389.1 -3483.26,14389.2 -3484.22,14387.8C-3485.43,14385.9 -3484.32,14384.4 -3484.32,14384.4L-3439.99,14303.4C-3439.99,14303.4 -3439.1,14300.9 -3436.72,14301.1C-3434.07,14301.3 -3433.77,14303.7 -3433.77,14303.7L-3428.35,14331.9C-3428.35,14331.9 -3428.07,14333.1 -3428.12,14333.7C-3428.15,14334.2 -3428.66,14335.2 -3428.66,14335.2L-3454.74,14385.2C-3454.74,14385.2 -3455.36,14386.6 -3456.21,14387.2C-3457.18,14387.9 -3458.57,14387.8 -3458.57,14387.8ZM-3475.34,14382L-3460.38,14381.2L-3435.03,14333.1L-3438.55,14314.9L-3475.34,14382Z"/>
                        </g>
                        <g transform="matrix(4.70803,0,0,4.70803,8429.15,-62597.7)">
                            <path d="M-3435.79,14300.9L-3399.09,14311C-3399.09,14311 -3397.45,14311.6 -3397.2,14313.4C-3396.92,14315.4 -3398.45,14316.4 -3398.45,14316.4L-3428.67,14336.2C-3428.67,14336.2 -3430.63,14337.7 -3432.32,14336.8C-3434.03,14336 -3434.24,14333.9 -3434.24,14333.9L-3439.84,14304.5C-3439.84,14304.5 -3440.15,14302.9 -3439.07,14301.7C-3437.72,14300.3 -3435.79,14300.9 -3435.79,14300.9ZM-3432.1,14308.9L-3428.49,14327.9L-3409.13,14315.3L-3432.1,14308.9Z"/>
                        </g>
                        <g transform="matrix(4.70803,0,0,4.70803,8468.19,-62557.1)">
                            <path d="M-3402.05,14311.4C-3402.05,14311.4 -3401.08,14310.6 -3399.66,14310.9C-3398.32,14311.1 -3397.65,14312.2 -3397.65,14312.2L-3360.14,14384.9C-3360.14,14384.9 -3359.13,14386.6 -3360.36,14388.3C-3361.55,14390 -3363.6,14389.5 -3363.6,14389.5L-3412.96,14380.4C-3412.96,14380.4 -3414.7,14380.2 -3415.53,14379.6C-3416.48,14378.8 -3416.82,14377.5 -3416.82,14377.5L-3434.09,14334.8C-3434.09,14334.8 -3434.32,14333.8 -3433.89,14332.8C-3433.41,14331.6 -3432.54,14331.3 -3432.54,14331.3L-3402.05,14311.4ZM-3426.55,14335.4L-3410.98,14374L-3369.47,14381.4L-3401.7,14319.1L-3426.55,14335.4Z"/>
                        </g>
                    </g>
                    <g transform="matrix(4.50657,0,0,4.43155,7724.81,-58575)">
                        <path d="M-3433.96,14331.9C-3433.96,14331.9 -3433.01,14330.2 -3431.27,14330.3C-3429.38,14330.3 -3428.48,14331.9 -3428.48,14331.9L-3411.28,14374.5C-3411.28,14374.5 -3410.48,14375.9 -3410.48,14377.2C-3410.49,14378.3 -3411.33,14379.2 -3411.33,14379.2L-3436.99,14405.6C-3436.99,14405.6 -3437.91,14406.9 -3439.51,14406.9C-3441.17,14406.9 -3442.03,14405.7 -3442.03,14405.7L-3459.93,14387.2C-3459.93,14387.2 -3461.05,14386.3 -3461.03,14384.7C-3461.02,14383.7 -3459.91,14381.9 -3459.91,14381.9L-3433.96,14331.9ZM-3453.24,14384L-3439.63,14398.2L-3418.14,14376.1L-3431.65,14342.6L-3453.24,14384Z"/>
                    </g>
                </g>
            </g>
        </g>
    </g>
</svg>
