<?xml version="1.0" encoding="UTF-8" standalone="no"?>
<!DOCTYPE svg PUBLIC "-//W3C//DTD SVG 1.1//EN" "http://www.w3.org/Graphics/SVG/1.1/DTD/svg11.dtd">
<svg width="100%" height="100%" viewBox="0 0 24 24" version="1.1" xmlns="http://www.w3.org/2000/svg" xmlns:xlink="http://www.w3.org/1999/xlink" xml:space="preserve" xmlns:serif="http://www.serif.com/" style="fill-rule:evenodd;clip-rule:evenodd;stroke-linejoin:round;stroke-miterlimit:2;">
    <path d="M12,7C13.646,7 15,8.354 15,10L15,14C15,14.461 14.894,14.899 14.705,15.291L14.707,15.293C15.097,15.683 15.097,16.317 14.707,16.707C14.317,17.097 13.683,17.097 13.293,16.707L13.291,16.705C12.899,16.894 12.461,17 12,17C10.354,17 9,15.646 9,14L9,10C9,8.354 10.354,7 12,7ZM12,15C12,14.744 12.098,14.488 12.293,14.293C12.488,14.098 12.744,14 13,14L13,10C13,9.451 12.549,9 12,9C11.451,9 11,9.451 11,10L11,14C11,14.549 11.452,15 12,15ZM6,9L4,9L4,11L6,11C7.097,11 8,11.903 8,13L8,15C8,16.097 7.097,17 6,17L4,17C2.903,17 2,16.097 2,15C2,14.448 2.448,14 3,14C3.552,14 4,14.448 4,15L6,15L6,13L4,13C2.903,13 2,12.097 2,11L2,9C2,7.903 2.903,7 4,7L6,7C7.097,7 8,7.903 8,9C8,9.552 7.552,10 7,10C6.448,10 6,9.552 6,9ZM16,8C16,7.448 16.448,7 17,7C17.552,7 18,7.448 18,8L18,15L21,15C21.552,15 22,15.448 22,16C22,16.552 21.552,17 21,17L17,17C16.448,17 16,16.552 16,16L16,8Z"/>
</svg>
