<svg xmlns="http://www.w3.org/2000/svg" width="24" height="24" viewBox="0 0 24 24">
    <g transform="matrix(1.99033,0,0,1.99033,-11.3938,-12.0424)">
        <path fill="currentColor" d="M7.232,13.421L7.232,17.17C7.232,17.17 7.442,17.815 8.393,17.822C9.181,17.827 9.636,17.129 9.636,17.129L9.656,13.646L13.975,13.646L13.975,17.231C13.975,17.231 14.106,17.883 15.299,17.883C16.531,17.883 16.48,17.21 16.48,17.21L16.48,13.197C16.48,13.197 16.431,12.407 15.704,11.937C15.082,11.534 14.423,11.568 14.423,11.568L9.065,11.568C9.065,11.568 8.324,11.541 7.817,12.072C7.315,12.597 7.232,13.421 7.232,13.421Z"/>
        <path fill="currentColor" d="M7.232,13.421C7.232,13.421 7.315,12.597 7.817,12.072C8.324,11.541 9.065,11.568 9.065,11.568L14.423,11.568C14.423,11.568 15.082,11.534 15.704,11.937C16.431,12.407 16.48,13.197 16.48,13.197L16.48,17.21C16.48,17.21 16.531,17.883 15.299,17.883C14.106,17.883 13.975,17.231 13.975,17.231L13.975,13.646L9.656,13.646L9.636,17.129C9.636,17.129 9.181,17.827 8.393,17.822C7.442,17.815 7.232,17.17 7.232,17.17L7.232,13.421ZM14.477,17.118C14.543,17.179 14.797,17.38 15.299,17.38C15.552,17.38 15.732,17.35 15.86,17.294C15.922,17.266 15.97,17.214 15.978,17.205C15.978,17.039 15.978,13.219 15.978,13.217C15.968,13.137 15.893,12.657 15.431,12.359C14.953,12.049 14.448,12.069 14.448,12.069C14.44,12.07 14.431,12.07 14.423,12.07L9.065,12.07C9.059,12.07 9.053,12.07 9.047,12.07C9.047,12.07 8.532,12.05 8.181,12.419C7.836,12.78 7.75,13.325 7.734,13.447L7.734,13.449L7.734,17.05C7.804,17.146 7.993,17.316 8.397,17.319C8.759,17.322 9.013,17.096 9.134,16.958L9.153,13.643C9.155,13.366 9.38,13.143 9.656,13.143L13.975,13.143C14.252,13.143 14.477,13.368 14.477,13.646L14.477,17.118Z"/>
        <g transform="matrix(1,0,0,1,0.310404,0.20805)">
            <path fill="currentColor" d="M6.926,10.081C6.687,9.474 6.617,8.709 6.906,8.125C7.222,7.487 8.145,6.529 8.821,6.251C9.483,5.978 10.26,6.016 10.899,6.332C11.537,6.648 12.331,7.497 12.65,8.145C12.97,8.794 13.438,9.852 12.976,10.427C12.804,10.641 12.182,11.236 11.729,11.539C11.352,11.791 10.135,11.663 9.758,11.772C8.896,12.02 8.8,12.933 8.8,12.933C8.8,12.933 7.242,10.882 6.926,10.081ZM9.574,8.064C9.297,8.029 8.793,8.576 8.719,8.838C8.644,9.099 8.681,9.44 8.861,9.734C9.065,10.067 9.717,10.777 10.043,10.794C10.369,10.811 11.137,10.166 11.041,9.755C11.012,9.63 10.911,9.252 10.726,9.038C10.278,8.523 9.892,8.104 9.574,8.064Z"/>
            <path fill="currentColor" d="M6.926,10.081C6.687,9.474 6.617,8.709 6.906,8.125C7.222,7.487 8.145,6.529 8.821,6.251C9.483,5.978 10.26,6.016 10.899,6.332C11.537,6.648 12.331,7.497 12.65,8.145C12.97,8.794 13.438,9.852 12.976,10.427C12.804,10.641 12.182,11.236 11.729,11.539C11.352,11.791 10.135,11.663 9.758,11.772C8.896,12.02 8.8,12.933 8.8,12.933C8.8,12.933 7.242,10.882 6.926,10.081ZM7.129,10.001C7.359,10.584 8.262,11.842 8.714,12.453C8.853,12.129 9.136,11.724 9.698,11.562C9.933,11.494 10.482,11.51 10.968,11.481C11.234,11.465 11.479,11.444 11.607,11.358C12.043,11.067 12.641,10.496 12.806,10.29C12.955,10.105 12.972,9.855 12.937,9.591C12.874,9.123 12.637,8.612 12.455,8.242C12.153,7.629 11.405,6.826 10.802,6.528C10.219,6.239 9.509,6.203 8.904,6.452C8.267,6.715 7.399,7.62 7.101,8.222C6.838,8.753 6.912,9.449 7.129,10.001ZM9.602,7.847C9.761,7.867 9.938,7.956 10.124,8.106C10.355,8.291 10.612,8.575 10.89,8.895C11.101,9.137 11.221,9.564 11.254,9.705C11.304,9.924 11.197,10.202 10.991,10.444C10.834,10.629 10.627,10.795 10.439,10.896C10.286,10.979 10.14,11.017 10.032,11.011C9.903,11.005 9.73,10.928 9.552,10.795C9.214,10.544 8.828,10.097 8.675,9.848C8.46,9.497 8.42,9.09 8.509,8.778C8.562,8.594 8.787,8.283 9.036,8.078C9.233,7.915 9.448,7.828 9.602,7.847ZM9.574,8.064C9.297,8.029 8.793,8.576 8.719,8.838C8.644,9.099 8.681,9.44 8.861,9.734C9.065,10.067 9.717,10.777 10.043,10.794C10.369,10.811 11.137,10.166 11.041,9.755C11.012,9.63 10.911,9.252 10.726,9.038C10.278,8.523 9.892,8.104 9.574,8.064Z"/>
        </g>
        <g transform="matrix(1,0,0,1,-0.346313,0)">
            <circle fill="currentColor" cx="12.197" cy="16.411" r="1.36"/>
        </g>
    </g>
</svg>