<svg xmlns="http://www.w3.org/2000/svg" width="24" height="24" viewBox="0 0 24 24">
    <g transform="matrix(0.319528,0,0,0.319528,3.53596,-1.05644)">
        <path fill="currentColor" d="M15,43C14.54,41.91 14.72,41.21 14,40C13.71,39.52 13.13,38.51 12,38C10.38,37.27 8.31,37.69 7,39C5.75,40.25 5.12,42.38 6,44C6.87,45.6 8.81,45.97 9,46C9.99,46.17 10.13,45.81 11,46C12.45,46.32 13.56,47.68 14,49C14.45,50.36 13.58,50.94 14,52C14.43,53.09 15.7,53.64 17,54C22.05,55.38 24.84,53.08 30,54C31.4,54.25 35.05,54.93 37,58C37.18,58.29 38.79,60.9 38,64C37.14,67.4 34.02,68.97 32,70C27.97,72.05 24.13,71.69 22.62,71.47C20.64,71.17 15.6,70.42 14,67C13.22,65.34 12.64,61.77 13,60C13.03,59.87 13.11,59.48 13,59C12.7,57.74 11.25,57.1 11,57C9.32,56.3 7.29,56.94 6,58C4.22,59.47 4.09,61.72 4,63C3.78,66.33 5.29,68.85 6,70C8.24,73.62 11.47,75.26 13,76C16.9,77.9 20.33,77.97 24,78C29.85,78.05 34.49,78.09 39,75C40.08,74.26 44.77,71.06 46,65C46.31,63.5 46.8,59.86 45,56C42.88,51.47 38.9,49.43 38,49C30.84,45.55 22.62,48.87 18,46C16.94,45.34 15.65,44.54 15,43Z" style="fill-rule:nonzero;"/>
    </g>
    <g transform="matrix(0.319528,0,0,0.319528,3.53596,-1.05644)">
        <path fill="currentColor" d="M10,13C9.53,12.99 8.02,12.97 7,14C6.19,14.81 6.09,15.87 6,17C5.39,24.5 5.57,25.69 6,27C6.82,29.49 7.75,29.9 8,30C9,30.39 9.54,29.71 11,30C11.1,30.02 13,30.43 14,32C14.56,32.88 14.34,33.33 15,35C15.51,36.28 15.67,36.66 16,37C16.65,37.66 17.45,37.88 18,38C20.25,38.49 21.72,38.05 24,38C27.65,37.91 28.45,38.91 30,38C31.01,37.41 31.86,36.29 32,35C32.25,32.74 30.18,31.14 30,31C28.51,29.88 26.65,29.9 23,30C19.72,30.09 19.33,30.48 18,30C16.44,29.44 14.38,27.97 14,26C13.95,25.74 14,25.82 14,22L14,21C14.02,16.6 14.53,16.02 14,15C13.23,13.52 11.24,13.02 10,13Z"/>
    </g>
    <g transform="matrix(0.319528,0,0,0.319528,3.53596,-1.05644)">
        <path fill="currentColor" d="M29,4C27.77,3.36 27.35,3.98 24,4C20.62,4.02 19.95,3.39 18,4C17.06,4.29 15.66,4.73 15,6C13.86,8.18 15.89,10.86 16,11C16.19,11.24 17.21,12.52 19,13C19.95,13.26 20.57,13.14 22,13C25.58,12.64 27.4,12.47 29,13C29.67,13.22 31.04,13.7 32,15C32.66,15.9 32.87,16.86 33,18C33.54,22.79 31.99,24.59 33,27C33.18,27.43 34.07,29.67 36,30C37.46,30.25 38.71,29.24 39,29C40.24,27.99 40.59,26.65 41,25C41.39,23.41 41.87,20.51 41,17C40.53,15.12 40.18,13.79 39,13C38.54,12.69 37.69,12.46 36,12C33.88,11.42 33.5,11.48 33,11C32.23,10.26 32.52,9.55 32,8C31.87,7.62 30.96,5.02 29,4Z" style="fill-rule:nonzero;"/>
    </g>
    <g transform="matrix(0.319528,0,0,0.319528,3.53596,-1.05644)">
        <circle fill="currentColor" cx="44.5" cy="8.5" r="4.5"/>
    </g>
</svg>