<?xml version="1.0" encoding="UTF-8" standalone="no"?>
<!DOCTYPE svg PUBLIC "-//W3C//DTD SVG 1.1//EN" "http://www.w3.org/Graphics/SVG/1.1/DTD/svg11.dtd">
<svg width="100%" height="100%" viewBox="0 0 1080 1010" version="1.1" xmlns="http://www.w3.org/2000/svg" xmlns:xlink="http://www.w3.org/1999/xlink" xml:space="preserve" xmlns:serif="http://www.serif.com/" style="fill-rule:evenodd;clip-rule:evenodd;stroke-linejoin:round;stroke-miterlimit:2;">
    <g id="Base" transform="matrix(1,0,0,1,-299.309,-478.258)">
        <path d="M881.109,537.76C881.109,537.76 861.91,518.806 838.022,512.067C814.135,505.327 768.296,502.232 768.296,502.232L564.002,522.266L419.466,629.788C377.897,675.706 348.728,731.544 342.138,805.444L343.86,912.992L389.624,937.485L450.328,881.9L547.987,826.51L570.439,897.637L584.991,1020.95C572.062,1080.49 551.711,1136.25 518.043,1185.23L465.808,1248.97L444.576,1260.92L379.552,1259.52L323.931,1284.19L308.641,1343.05L335.494,1385.05L419.724,1411.91L668.088,1457.98L821.085,1458.76L898.533,1459.46L1056.27,1455.07L1155.44,1447.72L1255.52,1435.71L1299.65,1399.78L1326.88,1350.44L1352.64,1288.96L1309.97,1206.73L1254.83,1169.72L1201.15,1156.54L1141.17,895.419L1061.08,704.952L961.545,578.261C961.545,578.261 959.713,575.491 955.334,573.953C943.587,569.827 934.429,552.527 906.463,542.364C898.81,539.583 881.109,537.76 881.109,537.76Z" style="fill:rgb(20,71,230);"/>
        <clipPath id="_clip1">
            <path d="M881.109,537.76C881.109,537.76 861.91,518.806 838.022,512.067C814.135,505.327 768.296,502.232 768.296,502.232L564.002,522.266L419.466,629.788C377.897,675.706 348.728,731.544 342.138,805.444L343.86,912.992L389.624,937.485L450.328,881.9L547.987,826.51L570.439,897.637L584.991,1020.95C572.062,1080.49 551.711,1136.25 518.043,1185.23L465.808,1248.97L444.576,1260.92L379.552,1259.52L323.931,1284.19L308.641,1343.05L335.494,1385.05L419.724,1411.91L668.088,1457.98L821.085,1458.76L898.533,1459.46L1056.27,1455.07L1155.44,1447.72L1255.52,1435.71L1299.65,1399.78L1326.88,1350.44L1352.64,1288.96L1309.97,1206.73L1254.83,1169.72L1201.15,1156.54L1141.17,895.419L1061.08,704.952L961.545,578.261C961.545,578.261 959.713,575.491 955.334,573.953C943.587,569.827 934.429,552.527 906.463,542.364C898.81,539.583 881.109,537.76 881.109,537.76Z"/>
        </clipPath>
        <g clip-path="url(#_clip1)">
            <g id="star" transform="matrix(7.29147,-3.1912,3.1912,7.29147,849.017,636.498)">
                <path d="M10.92,2.868C11.144,2.484 11.556,2.247 12,2.247C12.444,2.247 12.856,2.484 13.08,2.868L15.875,7.666L21.303,8.842C21.876,8.966 22.288,9.478 22.288,10.063C22.288,10.37 22.174,10.667 21.97,10.896L18.27,15.037L18.83,20.562C18.834,20.604 18.836,20.646 18.836,20.688C18.836,21.374 18.272,21.938 17.586,21.938C17.413,21.938 17.241,21.902 17.082,21.832L12,19.592L6.918,21.832C6.759,21.902 6.587,21.938 6.414,21.938C5.728,21.938 5.164,21.374 5.164,20.688C5.164,20.646 5.166,20.604 5.17,20.562L5.73,15.037L2.03,10.897C1.825,10.668 1.712,10.371 1.712,10.064C1.712,9.477 2.124,8.966 2.697,8.842L8.125,7.666L10.92,2.868Z" style="fill:rgb(231,231,231);fill-rule:nonzero;"/>
                <path d="M10.92,2.868C11.144,2.484 11.556,2.247 12,2.247C12.444,2.247 12.856,2.484 13.08,2.868L15.875,7.666L21.303,8.842C21.876,8.966 22.288,9.478 22.288,10.063C22.288,10.37 22.174,10.667 21.97,10.896L18.27,15.037L18.83,20.562C18.834,20.604 18.836,20.646 18.836,20.688C18.836,21.374 18.272,21.938 17.586,21.938C17.413,21.938 17.241,21.902 17.082,21.832L12,19.592L6.918,21.832C6.759,21.902 6.587,21.938 6.414,21.938C5.728,21.938 5.164,21.374 5.164,20.688C5.164,20.646 5.166,20.604 5.17,20.562L5.73,15.037L2.03,10.897C1.825,10.668 1.712,10.371 1.712,10.064C1.712,9.477 2.124,8.966 2.697,8.842L8.125,7.666L10.92,2.868ZM4.123,10.441L7.12,13.794C7.469,14.185 7.638,14.704 7.585,15.225L7.132,19.7L11.248,17.886C11.727,17.674 12.273,17.674 12.752,17.886L16.868,19.7L16.415,15.225C16.362,14.704 16.531,14.185 16.879,13.795L19.876,10.441L15.48,9.488C14.969,9.378 14.527,9.057 14.264,8.605L12,4.719L9.736,8.605C9.473,9.057 9.031,9.378 8.52,9.488L4.123,10.441Z" style="fill:rgb(176,185,198);"/>
            </g>
        </g>
        <g id="star1" serif:id="star" transform="matrix(6.04891,-2.31403,2.31403,6.04891,1006.92,932.143)">
            <path d="M10.92,2.868C11.144,2.484 11.556,2.247 12,2.247C12.444,2.247 12.856,2.484 13.08,2.868L15.875,7.666L21.303,8.842C21.876,8.966 22.288,9.478 22.288,10.063C22.288,10.37 22.174,10.667 21.97,10.896L18.27,15.037L18.83,20.562C18.834,20.604 18.836,20.646 18.836,20.688C18.836,21.374 18.272,21.938 17.586,21.938C17.413,21.938 17.241,21.902 17.082,21.832L12,19.592L6.918,21.832C6.759,21.902 6.587,21.938 6.414,21.938C5.728,21.938 5.164,21.374 5.164,20.688C5.164,20.646 5.166,20.604 5.17,20.562L5.73,15.037L2.03,10.897C1.825,10.668 1.712,10.371 1.712,10.064C1.712,9.477 2.124,8.966 2.697,8.842L8.125,7.666L10.92,2.868Z" style="fill:rgb(231,231,231);fill-rule:nonzero;"/>
            <path d="M10.92,2.868C11.144,2.484 11.556,2.247 12,2.247C12.444,2.247 12.856,2.484 13.08,2.868L15.875,7.666L21.303,8.842C21.876,8.966 22.288,9.478 22.288,10.063C22.288,10.37 22.174,10.667 21.97,10.896L18.27,15.037L18.83,20.562C18.834,20.604 18.836,20.646 18.836,20.688C18.836,21.374 18.272,21.938 17.586,21.938C17.413,21.938 17.241,21.902 17.082,21.832L12,19.592L6.918,21.832C6.759,21.902 6.587,21.938 6.414,21.938C5.728,21.938 5.164,21.374 5.164,20.688C5.164,20.646 5.166,20.604 5.17,20.562L5.73,15.037L2.03,10.897C1.825,10.668 1.712,10.371 1.712,10.064C1.712,9.477 2.124,8.966 2.697,8.842L8.125,7.666L10.92,2.868ZM5.099,10.758L7.505,13.45C7.951,13.949 8.166,14.612 8.099,15.277L7.735,18.87L11.04,17.413C11.651,17.143 12.349,17.143 12.96,17.413L16.265,18.87L15.901,15.277C15.834,14.612 16.049,13.949 16.494,13.451L18.9,10.758L15.371,9.993C14.718,9.852 14.154,9.442 13.818,8.865L12,5.744L10.182,8.865C9.846,9.442 9.282,9.852 8.629,9.993L5.099,10.758Z" style="fill:rgb(176,185,198);"/>
        </g>
    </g>
    <g transform="matrix(1.00918,0,0,1,-304.004,-479.377)">
        <path d="M454.528,660.896C443.879,660.679 430.88,667.759 420.037,673.419C408.296,679.548 393.819,686.986 384.08,697.67C374.22,708.489 366.712,723.858 360.874,738.33C353.304,757.095 342.36,785.492 338.658,810.261C334.956,835.029 335.972,868.803 338.664,886.939C340.424,898.796 345.855,911.174 354.809,919.073C363.764,926.973 381.735,933.251 392.39,934.334C401.599,935.269 411.463,931.289 418.738,925.567C426.242,919.666 430.459,905.924 437.411,898.926C443.913,892.381 453.268,889.378 460.447,883.583C468.131,877.38 475.821,867.615 483.518,861.708C490.605,856.269 499.058,852.882 506.628,848.139C515.042,842.867 527.369,835.273 534.002,830.076C538.743,826.363 545.023,822.817 546.429,816.961C548.646,807.728 550.788,788.338 547.304,774.677C543.358,759.202 532.784,739.934 522.75,724.108C512.187,707.449 495.299,685.259 483.928,674.724C475.984,667.363 465.176,661.114 454.528,660.896Z" style="fill:rgb(20,71,230);"/>
    </g>
    <g id="star2" serif:id="star" transform="matrix(3.7377,-1.42987,1.42987,3.7377,79.9526,278.366)">
        <path d="M10.92,2.868C11.144,2.484 11.556,2.247 12,2.247C12.444,2.247 12.856,2.484 13.08,2.868L15.875,7.666L21.303,8.842C21.876,8.966 22.288,9.478 22.288,10.063C22.288,10.37 22.174,10.667 21.97,10.896L18.27,15.037L18.83,20.562C18.834,20.604 18.836,20.646 18.836,20.688C18.836,21.374 18.272,21.938 17.586,21.938C17.413,21.938 17.241,21.902 17.082,21.832L12,19.592L6.918,21.832C6.759,21.902 6.587,21.938 6.414,21.938C5.728,21.938 5.164,21.374 5.164,20.688C5.164,20.646 5.166,20.604 5.17,20.562L5.73,15.037L2.03,10.897C1.825,10.668 1.712,10.371 1.712,10.064C1.712,9.477 2.124,8.966 2.697,8.842L8.125,7.666L10.92,2.868Z" style="fill:rgb(231,231,231);fill-rule:nonzero;stroke:rgb(176,185,198);stroke-width:2.09px;"/>
    </g>
    <g id="star3" serif:id="star" transform="matrix(12.2429,-4.68358,4.68358,12.2429,232.162,326.261)">
        <path d="M10.92,2.868C11.144,2.484 11.556,2.247 12,2.247C12.444,2.247 12.856,2.484 13.08,2.868L15.875,7.666L21.303,8.842C21.876,8.966 22.288,9.478 22.288,10.063C22.288,10.37 22.174,10.667 21.97,10.896L18.27,15.037L18.83,20.562C18.834,20.604 18.836,20.646 18.836,20.688C18.836,21.374 18.272,21.938 17.586,21.938C17.413,21.938 17.241,21.902 17.082,21.832L12,19.592L6.918,21.832C6.759,21.902 6.587,21.938 6.414,21.938C5.728,21.938 5.164,21.374 5.164,20.688C5.164,20.646 5.166,20.604 5.17,20.562L5.73,15.037L2.03,10.897C1.825,10.668 1.712,10.371 1.712,10.064C1.712,9.477 2.124,8.966 2.697,8.842L8.125,7.666L10.92,2.868Z" style="fill:rgb(231,231,231);fill-rule:nonzero;"/>
        <path d="M10.92,2.868C11.144,2.484 11.556,2.247 12,2.247C12.444,2.247 12.856,2.484 13.08,2.868L15.875,7.666L21.303,8.842C21.876,8.966 22.288,9.478 22.288,10.063C22.288,10.37 22.174,10.667 21.97,10.896L18.27,15.037L18.83,20.562C18.834,20.604 18.836,20.646 18.836,20.688C18.836,21.374 18.272,21.938 17.586,21.938C17.413,21.938 17.241,21.902 17.082,21.832L12,19.592L6.918,21.832C6.759,21.902 6.587,21.938 6.414,21.938C5.728,21.938 5.164,21.374 5.164,20.688C5.164,20.646 5.166,20.604 5.17,20.562L5.73,15.037L2.03,10.897C1.825,10.668 1.712,10.371 1.712,10.064C1.712,9.477 2.124,8.966 2.697,8.842L8.125,7.666L10.92,2.868ZM3.908,10.371L7.035,13.87C7.363,14.237 7.521,14.724 7.472,15.214L6.998,19.883L11.294,17.99C11.744,17.792 12.256,17.792 12.706,17.99L17.002,19.883L16.528,15.214C16.479,14.724 16.637,14.237 16.965,13.871L20.092,10.371L15.504,9.377C15.024,9.273 14.61,8.972 14.362,8.547L12,4.492L9.638,8.547C9.39,8.972 8.976,9.273 8.496,9.377L3.908,10.371Z" style="fill:rgb(176,185,198);"/>
    </g>
    <g id="star4" serif:id="star" transform="matrix(6.04891,-2.31403,2.31403,6.04891,237.85,107.005)">
        <path d="M10.92,2.868C11.144,2.484 11.556,2.247 12,2.247C12.444,2.247 12.856,2.484 13.08,2.868L15.875,7.666L21.303,8.842C21.876,8.966 22.288,9.478 22.288,10.063C22.288,10.37 22.174,10.667 21.97,10.896L18.27,15.037L18.83,20.562C18.834,20.604 18.836,20.646 18.836,20.688C18.836,21.374 18.272,21.938 17.586,21.938C17.413,21.938 17.241,21.902 17.082,21.832L12,19.592L6.918,21.832C6.759,21.902 6.587,21.938 6.414,21.938C5.728,21.938 5.164,21.374 5.164,20.688C5.164,20.646 5.166,20.604 5.17,20.562L5.73,15.037L2.03,10.897C1.825,10.668 1.712,10.371 1.712,10.064C1.712,9.477 2.124,8.966 2.697,8.842L8.125,7.666L10.92,2.868Z" style="fill:rgb(231,231,231);fill-rule:nonzero;stroke:rgb(176,185,198);stroke-width:2.38px;"/>
    </g>
    <g transform="matrix(1,0,0,1,-302.765,-479.39)">
        <path d="M446.058,664.009C434.023,665.736 413.756,678.448 401.911,686.336C391.717,693.125 382.212,702.648 374.987,711.338C368.226,719.468 361.919,731.339 358.559,738.474C356.271,743.334 355.621,749.66 354.825,754.15C354.166,757.862 351.631,763.57 353.781,765.412C355.93,767.253 363.177,764.224 367.722,765.197C376.228,767.019 393.593,769.961 404.816,776.344C417.579,783.604 434.822,797.341 444.301,808.755C452.829,819.025 457.218,834.216 461.689,844.832C465.465,853.799 466.1,870.044 471.124,872.452C476.148,874.861 485.087,863.91 491.833,859.282C501.686,852.523 521.035,838.362 530.243,831.899C535.79,828.006 544.054,826.57 547.081,820.507C550.417,813.824 552.216,801.231 550.261,791.806C547.06,776.374 534.586,743.735 527.877,727.918C523.217,716.933 518.586,705.193 510.005,696.901C501.046,688.244 484.778,681.454 474.121,675.972C465.078,671.321 456.124,662.564 446.058,664.009Z" style="fill-opacity:0.29;"/>
    </g>
    <g transform="matrix(1,0,0,1,-300.57,-480.908)">
        <path d="M567.832,1085.97C584.699,1075.69 611.508,1097.72 633.926,1098.95C668.542,1100.86 733.179,1100.03 775.527,1097.4C813.248,1095.06 850.979,1090.73 888.014,1083.2C929.567,1074.75 981.073,1057.57 1024.84,1046.7C1066.58,1036.34 1126.57,1023.23 1150.62,1018.01C1156.71,1016.69 1164.4,1011.31 1169.12,1015.37C1173.97,1019.52 1177.52,1033.34 1179.66,1042.94C1183.47,1059.93 1189.8,1097.91 1191.94,1117.31C1193.48,1131.25 1202.28,1149.31 1192.51,1159.37C1181.64,1170.56 1144.99,1178.51 1126.71,1184.44C1112.39,1189.08 1097.26,1190.79 1082.8,1194.96C1052.86,1203.6 986.208,1224.52 947.102,1236.27C914.17,1246.17 877.931,1258.63 848.16,1265.47C821.99,1271.48 795.175,1274.42 768.479,1277.33C737.202,1280.73 692.846,1284.73 660.497,1285.88C631.806,1286.89 602.978,1286.78 574.384,1284.21C541.321,1281.24 483.869,1271.95 462.118,1268.03C455.672,1266.87 441.145,1266.67 443.878,1260.72C446.935,1254.06 469.612,1240.3 480.463,1228.07C495.27,1211.39 518.162,1184.31 532.723,1160.63C547.127,1137.2 550.965,1096.25 567.832,1085.97Z" style="fill:rgb(255,185,0);"/>
    </g>
    <g transform="matrix(1,0,0,1,-304.66,-476.209)">
        <path d="M794.054,1456.51C807.743,1446.8 956.138,1414.1 999.402,1399.7C1018.94,1393.21 1035.58,1380.06 1053.64,1370.17C1071.96,1360.14 1090.74,1349.65 1109.35,1339.51C1128.49,1329.09 1148.74,1314.37 1168.45,1307.62C1187.3,1301.17 1207.78,1296.99 1227.59,1299.05C1251.86,1301.56 1296.39,1315.25 1314.04,1322.73C1322.88,1326.47 1331.92,1336.26 1333.52,1343.91C1335.12,1351.57 1328.53,1361.23 1323.66,1368.66C1316.48,1379.64 1301.69,1399.99 1290.4,1409.79C1280.65,1418.25 1268.55,1424.7 1255.93,1427.47C1224.39,1434.38 1153.12,1446.56 1101.13,1451.24C1044.68,1456.33 968.445,1457.11 917.265,1457.99C876.198,1458.69 780.365,1466.23 794.054,1456.51Z" style="fill:rgb(20,71,230);stroke:rgb(0,140,255);stroke-width:1.04px;stroke-linecap:round;stroke-miterlimit:1.5;"/>
        <path d="M794.054,1456.51C807.743,1446.8 956.138,1414.1 999.402,1399.7C1018.94,1393.21 1035.58,1380.06 1053.64,1370.17C1071.96,1360.14 1090.74,1349.65 1109.35,1339.51C1128.49,1329.09 1148.74,1314.37 1168.45,1307.62C1187.3,1301.17 1207.78,1296.99 1227.59,1299.05C1251.86,1301.56 1296.39,1315.25 1314.04,1322.73C1322.88,1326.47 1331.92,1336.26 1333.52,1343.91C1335.12,1351.57 1328.53,1361.23 1323.66,1368.66C1316.48,1379.64 1301.69,1399.99 1290.4,1409.79C1280.65,1418.25 1268.55,1424.7 1255.93,1427.47C1224.39,1434.38 1153.12,1446.56 1101.13,1451.24C1044.68,1456.33 968.445,1457.11 917.265,1457.99C876.198,1458.69 780.365,1466.23 794.054,1456.51Z" style="fill-opacity:0.2;stroke:rgb(0,140,255);stroke-width:1.04px;stroke-linecap:round;stroke-miterlimit:1.5;"/>
    </g>
    <g transform="matrix(1,0,0,1,-299.777,-481.55)">
        <path d="M574.358,908.419C576.844,897.171 590.285,929.779 596.685,941.415C604.972,956.48 616.418,979.046 624.08,998.813C633.263,1022.5 645.794,1054.45 651.785,1083.56C658.448,1115.95 662.926,1162.33 664.062,1193.11C664.988,1218.2 666.059,1250.3 658.602,1268.24C652.078,1283.93 630.033,1290.82 619.317,1300.75C610.305,1309.11 600.146,1317.03 594.308,1327.84C587.562,1340.34 580.662,1362.01 578.843,1375.74C577.32,1387.23 581.012,1400.85 583.393,1410.21C585.347,1417.9 590.431,1424.5 593.129,1431.93C595.828,1439.36 607.505,1454.91 599.583,1454.8C579.207,1454.52 511.853,1440.71 470.873,1430.24C431.064,1420.06 379.463,1404.67 353.702,1391.95C337.759,1384.08 323.358,1367.83 316.305,1353.92C309.419,1340.35 306.462,1322.94 311.378,1308.54C316.306,1294.1 333.113,1275.47 345.872,1267.31C357.882,1259.63 373.697,1260.31 387.935,1259.59C404.621,1258.75 432.462,1265.35 445.992,1262.28C456.181,1259.96 462.146,1248.9 469.119,1241.11C480.148,1228.81 500.131,1207.65 512.165,1188.43C524.481,1168.76 532.325,1143.07 543.012,1123.08C553.061,1104.28 569.828,1087.49 576.287,1068.46C582.695,1049.58 582.007,1028.84 581.766,1008.9C581.445,982.227 571.871,919.667 574.358,908.419Z" style="fill-opacity:0.2;"/>
    </g>
    <g transform="matrix(1,0,0,1,-287.973,-480.379)">
        <path d="M696.713,1282.79C682.235,1283.05 653.279,1283.59 631.581,1282.85C605.601,1281.97 567.345,1279.75 540.83,1277.49C517.97,1275.54 493.898,1272.59 472.492,1269.27C452.325,1266.15 427.713,1260.22 412.391,1257.61C401.85,1255.81 390.008,1253.39 380.562,1253.6C372.098,1253.79 363.415,1255.35 355.717,1258.88C347.956,1262.43 339.98,1269.02 333.993,1274.92C328.293,1280.54 323.489,1287.59 319.796,1294.28C316.215,1300.76 313.496,1307.8 311.836,1315.02C310.087,1322.62 308.666,1332.1 309.305,1339.87C309.924,1347.4 311.888,1355.08 315.669,1361.62C319.914,1368.96 327.371,1377.52 334.776,1383.93C342.501,1390.61 351.846,1397.94 362.016,1401.7C381.384,1408.85 420.824,1420.5 450.981,1426.84C496.37,1436.39 572.537,1453.54 634.354,1458.98C708.593,1465.52 821.888,1466.75 896.416,1466.04C958.23,1465.45 1026.04,1459.51 1081.52,1454.71C1130.93,1450.44 1194.54,1444.67 1229.29,1437.26C1250.95,1432.64 1275.57,1419.45 1290.02,1410.24C1300.79,1403.37 1308.44,1392.35 1315.94,1382C1323.52,1371.55 1331.03,1359.96 1335.48,1347.53C1340.24,1334.23 1345.87,1317.55 1344.52,1302.2C1342.66,1281.28 1335.69,1242.62 1324.37,1222C1314.01,1203.11 1295.34,1189.09 1276.61,1178.45C1257.78,1167.76 1231.31,1159.04 1211.43,1157.85C1192.87,1156.73 1174.92,1165.36 1157.31,1171.3C1136.28,1178.38 1106.1,1192.71 1085.28,1200.33C1067.92,1206.69 1050.06,1211.59 1032.39,1217.01C998.351,1227.47 921.505,1253.01 881.056,1263.06C851.143,1270.48 811.393,1274.24 789.693,1277.29C776.802,1279.1 759.503,1280.59 750.853,1281.34" style="fill:none;stroke:black;stroke-width:35.42px;stroke-linecap:round;stroke-miterlimit:1.5;"/>
    </g>
    <g transform="matrix(1,0,0,1,-302.137,-476.957)">
        <path d="M893.86,534.415C884.313,529.655 865.219,520.136 849.917,515.774C831.538,510.535 800.111,505.369 783.583,502.979C758.94,499.415 728.789,497.919 701.416,499.425C671.287,501.083 625.943,507.133 602.808,512.927C592.416,515.529 556.865,525.545 535.582,535.939C511.932,547.491 483.029,563.045 460.904,582.236C436.37,603.515 407.178,634.581 388.379,663.613C369.332,693.028 356.512,731.45 350.1,758.651C344.636,781.826 339.301,814.564 337.573,839.104C336.009,861.323 336.526,890.784 339.733,905.891C341.764,915.458 348.061,925.387 356.816,929.745C365.898,934.266 383.578,935.287 394.224,933.016C404.46,930.831 412.774,922.964 420.689,916.115C428.838,909.064 434.995,898.562 443.116,890.71C452.654,881.488 466.482,869.601 477.917,860.783C488.709,852.461 501.833,843.512 511.727,837.8C519.791,833.144 531.637,828.828 537.279,826.511C539.961,825.409 543.704,824.401 545.576,823.897" style="fill:none;stroke:black;stroke-width:35.42px;stroke-linecap:round;stroke-miterlimit:1.5;"/>
    </g>
    <g transform="matrix(1,0,0,1,-299.931,-480.122)">
        <path d="M350.185,757.22C354.037,749.769 361.74,734.866 368.95,724.601C376.945,713.219 389.382,697.596 398.154,688.926C404.926,682.233 412.872,676.428 421.584,672.585C431.038,668.414 444.756,663.733 454.879,663.901C464.578,664.061 474.692,667.597 482.319,673.591C491.929,681.142 504.371,695.952 512.536,709.209C521.872,724.367 531.469,745.382 538.337,764.538C545.527,784.594 551.569,807.498 555.677,829.546C561.594,861.302 571.033,917.798 573.84,955.074C576.296,987.693 577.668,1021.21 572.517,1053.2C567.365,1085.19 554.795,1121.93 542.929,1147.01C532.907,1168.2 516.71,1186.01 501.322,1203.68C484.875,1222.57 457.791,1247.76 444.249,1260.35" style="fill:none;stroke:black;stroke-width:35.42px;stroke-linecap:round;stroke-miterlimit:1.5;"/>
    </g>
    <g transform="matrix(1,0,0,1,-299.619,-475.779)">
        <path d="M948.353,567.014C961.143,577.85 986.724,599.523 1001.75,619.432C1024.97,650.219 1064.41,706.739 1087.73,751.734C1110.4,795.491 1126.32,842.561 1141.65,889.402C1157.29,937.207 1171.96,995.414 1181.56,1038.56C1189.61,1074.73 1196.04,1123.78 1199.26,1148.3" style="fill:none;stroke:black;stroke-width:35.42px;stroke-linecap:round;stroke-miterlimit:1.5;"/>
    </g>
    <g transform="matrix(1,0,0,1,-286.589,-479.684)">
        <path d="M571.093,1087.78C577.82,1089.64 591.275,1093.35 601.583,1095.05C617.264,1097.64 643.813,1102.55 665.175,1103.34C689.356,1104.23 719.7,1103.8 746.671,1100.41C785.161,1095.57 846.678,1084.95 896.114,1074.31C953.662,1061.92 1048.41,1036.51 1091.96,1026.09C1113.68,1020.89 1142.83,1014.8 1157.4,1011.75" style="fill:none;stroke:black;stroke-width:35.42px;stroke-linecap:round;stroke-miterlimit:1.5;"/>
    </g>
    <g transform="matrix(1,0,0,1,-1645.83,-854.696)">
        <g transform="matrix(0.913412,-0.206571,0.244105,1.07938,1119.87,465.179)">
            <path d="M1082.88,1107.86C1082.88,1081.25 1057.36,1059.65 1025.92,1059.65L849.287,1059.65C817.849,1059.65 792.326,1081.25 792.326,1107.86L792.326,1204.26C792.326,1230.87 817.849,1252.46 849.287,1252.46L1025.92,1252.46C1057.36,1252.46 1082.88,1230.87 1082.88,1204.26L1082.88,1107.86Z" style="fill:rgb(30,63,94);stroke:black;stroke-width:20.32px;stroke-linecap:round;stroke-miterlimit:1.5;"/>
        </g>
        <g transform="matrix(0.966726,-0.225105,0.439026,1.88542,897.058,-328.771)">
            <rect x="787.53" y="1036.42" width="255.036" height="19.938" style="fill:white;"/>
        </g>
        <g transform="matrix(0.970867,-0.239618,0.239618,0.970867,1105.18,639.673)">
            <path d="M918.832,1111.23C918.832,1109.68 917.577,1108.43 916.032,1108.43L826.125,1108.43C824.579,1108.43 823.324,1109.68 823.324,1111.23L823.324,1116.83C823.324,1118.38 824.579,1119.63 826.125,1119.63L916.032,1119.63C917.577,1119.63 918.832,1118.38 918.832,1116.83L918.832,1111.23Z" style="fill:rgb(205,72,202);"/>
        </g>
        <g transform="matrix(0.855071,-0.211991,0.240637,0.970615,1201.8,638.051)">
            <path d="M918.832,1111.23C918.832,1109.68 917.408,1108.43 915.653,1108.43L826.503,1108.43C824.749,1108.43 823.324,1109.68 823.324,1111.23L823.324,1116.83C823.324,1118.38 824.749,1119.63 826.503,1119.63L915.653,1119.63C917.408,1119.63 918.832,1118.38 918.832,1116.83L918.832,1111.23Z" style="fill:rgb(232,81,81);"/>
        </g>
        <g transform="matrix(0.228628,-0.0564574,0.239739,0.970837,1723.27,529.209)">
            <path d="M918.832,1111.23C918.832,1109.68 913.504,1108.43 906.941,1108.43L835.215,1108.43C828.652,1108.43 823.324,1109.68 823.324,1111.23L823.324,1116.83C823.324,1118.38 828.652,1119.63 835.215,1119.63L906.941,1119.63C913.504,1119.63 918.832,1118.38 918.832,1116.83L918.832,1111.23Z" style="fill:white;"/>
        </g>
        <g transform="matrix(0.698146,-0.169743,0.236251,0.971692,1370.38,613.287)">
            <path d="M918.832,1111.23C918.832,1109.68 917.086,1108.43 914.935,1108.43L827.222,1108.43C825.071,1108.43 823.324,1109.68 823.324,1111.23L823.324,1116.83C823.324,1118.38 825.071,1119.63 827.222,1119.63L914.935,1119.63C917.086,1119.63 918.832,1118.38 918.832,1116.83L918.832,1111.23Z" style="fill:rgb(190,80,177);"/>
        </g>
        <g transform="matrix(0.543469,-0.13605,0.242843,0.970066,1466.15,615.692)">
            <path d="M918.832,1111.23C918.832,1109.68 916.592,1108.43 913.834,1108.43L828.323,1108.43C825.564,1108.43 823.324,1109.68 823.324,1111.23L823.324,1116.83C823.324,1118.38 825.564,1119.63 828.323,1119.63L913.834,1119.63C916.592,1119.63 918.832,1118.38 918.832,1116.83L918.832,1111.23Z" style="fill:rgb(64,237,229);"/>
        </g>
        <g transform="matrix(0.588869,-0.140248,0.231685,0.972791,1527.96,531.081)">
            <path d="M918.832,1111.23C918.832,1109.68 916.759,1108.43 914.206,1108.43L827.95,1108.43C825.397,1108.43 823.324,1109.68 823.324,1111.23L823.324,1116.83C823.324,1118.38 825.397,1119.63 827.95,1119.63L914.206,1119.63C916.759,1119.63 918.832,1118.38 918.832,1116.83L918.832,1111.23Z" style="fill:rgb(35,201,63);"/>
        </g>
        <g transform="matrix(1,0,0,1,1333.73,381.981)">
            <circle cx="825.982" cy="1145.42" r="4.105" style="fill:white;"/>
        </g>
        <g transform="matrix(1,0,0,1,1349.04,315.357)">
            <circle cx="825.982" cy="1145.42" r="4.105" style="fill:rgb(164,240,151);"/>
        </g>
        <g transform="matrix(1,0,0,1,1336.69,318.586)">
            <circle cx="825.982" cy="1145.42" r="4.105" style="fill:rgb(255,207,0);"/>
        </g>
        <g transform="matrix(1,0,0,1,1323.46,321.176)">
            <circle cx="825.982" cy="1145.42" r="4.105" style="fill:rgb(243,130,130);"/>
        </g>
        <g transform="matrix(1,0,0,1,1338.24,400.776)">
            <circle cx="825.982" cy="1145.42" r="4.105" style="fill:white;"/>
        </g>
        <g transform="matrix(1,0,0,1,1342.99,421.033)">
            <circle cx="825.982" cy="1145.42" r="4.105" style="fill:white;"/>
        </g>
        <g transform="matrix(1,0,0,1,1348.61,441.919)">
            <circle cx="825.982" cy="1145.42" r="4.105" style="fill:white;"/>
        </g>
        <g transform="matrix(0.913412,-0.206571,0.244105,1.07938,1119.45,464.547)">
            <path d="M1082.88,1107.86C1082.88,1081.25 1057.36,1059.65 1025.92,1059.65L849.287,1059.65C817.849,1059.65 792.326,1081.25 792.326,1107.86L792.326,1204.26C792.326,1230.87 817.849,1252.46 849.287,1252.46L1025.92,1252.46C1057.36,1252.46 1082.88,1230.87 1082.88,1204.26L1082.88,1107.86Z" style="fill:none;stroke:black;stroke-width:26.42px;stroke-linecap:round;stroke-miterlimit:1.5;"/>
        </g>
    </g>
    <g transform="matrix(1,0,0,1,-300.762,-478.008)">
        <path d="M733.927,1460.1C768.329,1456.12 837.133,1448.17 879.026,1437.96C915.697,1429.02 954.069,1412.19 985.283,1398.82C1013.12,1386.9 1040.21,1371.79 1066.31,1357.73C1091.86,1343.98 1116.19,1324.73 1141.88,1314.51C1166.87,1304.57 1197.02,1297.02 1220.5,1296.42C1241.81,1295.88 1264.32,1303.91 1282.77,1310.93C1300.15,1317.54 1320.87,1331.53 1331.23,1338.53" style="fill:none;stroke:black;stroke-width:35.42px;stroke-linecap:round;stroke-miterlimit:1.5;"/>
    </g>
</svg>
